<?xml version="1.0" encoding="UTF-8"?>
<!DOCTYPE svg PUBLIC "-//W3C//DTD SVG 1.1//EN" "http://www.w3.org/Graphics/SVG/1.1/DTD/svg11.dtd">
<!-- Creator: CorelDRAW 2018 -->
<svg xmlns="http://www.w3.org/2000/svg" xml:space="preserve" width="197.215mm" height="153.275mm" version="1.1" style="shape-rendering:geometricPrecision; text-rendering:geometricPrecision; image-rendering:optimizeQuality; fill-rule:evenodd; clip-rule:evenodd"
viewBox="0 0 19911.21 15474.96"
 xmlns:xlink="http://www.w3.org/1999/xlink">
 <defs>
  <style type="text/css">
   <![CDATA[
    .str0 {stroke:#2B2A29;stroke-width:50.48;stroke-miterlimit:22.9256}
    .fil6 {fill:none}
    .fil4 {fill:#FCCE86}
    .fil2 {fill:#E31E24}
    .fil3 {fill:#F9E805}
    .fil1 {fill:#3B69B0}
    .fil5 {fill:#176496}
    .fil0 {fill:#252422;fill-rule:nonzero}
   ]]>
  </style>
 </defs>
 <g id="Layer_x0020_1">
  <metadata id="CorelCorpID_0Corel-Layer"/>
  <g id="_415340720">
   <path class="fil0" d="M19905.37 5772.95c-29.29,-39.71 -59.13,-78.95 -94.04,-114.25 -46.34,-46.79 -91.87,-94.49 -136.25,-143.1 -117.75,-128.85 -234.68,-258.38 -351.98,-387.58 -44.28,-48.78 -89.41,-96.81 -132.94,-146.23 -135.01,-153.31 -269.69,-306.96 -403.92,-460.92 -58.41,-67.01 -115.1,-135.53 -173.31,-202.67 -43.23,-49.75 -88.17,-97.98 -131.52,-147.6 -73.67,-84.4 -144.83,-171.13 -220.47,-253.79 -151.21,-165.35 -301.78,-331.19 -446.45,-502.32 -10.67,-12.58 -21.76,-24.75 -32.82,-37 -79.26,-88.08 -158.35,-176.35 -237.94,-264.13 -143.8,-158.54 -271.68,-331.07 -426.18,-480.3 -61.48,-59.41 -116.95,-125.08 -174.47,-188.51 -117.34,-129.22 -242.15,-251.84 -347.73,-391.52 -7.89,-10.45 -18,-19.28 -27.07,-28.82 -65.77,-69.22 -131.08,-138.76 -197.43,-207.41 -18.25,-18.83 -38.96,-35.42 -59.38,-51.99 -15.68,-12.72 -34.43,-19.75 -54.81,-19.97 -46.1,-0.44 -92.28,-1.33 -138.38,-0.1 -105.42,2.74 -210.79,8.26 -316.23,9.64 -125.02,1.69 -250.08,-2.96 -375.18,5.58 -98.5,6.72 -197.78,-0.22 -295.88,16.04 -12.88,2.13 -26.38,0.25 -39.55,0.44 -247.21,3.31 -494.34,6.97 -741.52,9.79 -69.13,0.8 -138.38,-2.77 -207.46,-0.87 -161.43,4.45 -322.88,6.09 -484.34,4.91 -32.93,-0.28 -65.85,1.1 -98.78,1.26 -82.44,0.38 -164.82,1.16 -247.27,0.59 -128.5,-0.89 -257.04,-2.57 -385.5,-4.26 -105.43,-1.38 -211,0.22 -315.59,-16.9 -22.65,-3.7 -46.34,-6.08 -68.95,-3.45 -75.9,8.68 -151.32,-1.69 -226.81,-4.47 -138.28,-5.26 -275.92,-22.35 -414.57,-20.22 -9.84,0.14 -19.78,-1.27 -29.62,-1.43 -104.73,-1.67 -105.72,-15.85 -99.19,-110.45 9.24,-134.24 -15.57,-262.82 -61.2,-387.49 -41.98,-114.68 -83.85,-228.92 -99.99,-350.83 -4.1,-30.64 -18.23,-56.33 -42.39,-75.77 -38.47,-30.91 -76.55,-62.53 -116.41,-91.59 -63.85,-46.57 -126.9,-94.3 -190.79,-140.84 -87.94,-64.04 -175.29,-128.31 -269.23,-183.46 -48.2,-28.29 -96.96,-56.11 -143.08,-87.6 -82,-55.92 -170.49,-99.56 -258.05,-145.5 -90.88,-47.67 -190.28,-72.84 -284.21,-112.28 -9.04,-3.81 -18.83,-6.16 -28.51,-8.1 -58.07,-11.62 -116.23,-23.04 -174.35,-34.25 -78.3,-15.04 -157.64,-10.45 -236.56,-12.96 -5.2,-0.16 -10.38,-0.25 -15.55,-0.27l-3.89 0c-76.24,0.26 -150.07,15.98 -224.26,33.87 -74.88,18.06 -141.08,54.23 -209.71,85.76 -48.36,22.29 -85.83,60.68 -126.65,94.03 -20.89,17.01 -36.43,37.08 -48.53,61.28 -33.9,67.64 -69.28,134.56 -104.54,201.54 -24.89,47.24 -57.67,87.94 -100.75,120.27 -189.77,142.32 -379.41,284.76 -568.79,427.57 -42.07,31.72 -83.5,64.35 -123.79,98.26 -17.42,14.71 -32.55,32.71 -46.32,51.05 -20.32,26.91 -32.44,57.23 -28.9,92.12 4.36,43.28 -2.24,85.37 -12.29,127.35 -5.36,22.4 -8.96,45.24 -12.28,68.06 -15.24,104.48 -44.8,205.91 -65.71,309.18 -2.74,13.52 -12.52,24.28 -26.16,26.73 -54.95,9.96 -109.02,24.04 -166.03,22.13 -69.14,-2.27 -138.41,0.67 -207.66,0.94 -145.02,0.56 -290.07,0.56 -435.12,1.24 -181.28,0.86 -362.7,7.03 -543.8,1.99 -197.83,-5.5 -395.38,4.95 -593.13,1.11 -131.63,-2.54 -263.44,3.74 -395.18,6.08 0,1.19 -0.03,2.41 -0.03,3.62 -55.91,-1.6 -111.86,-4.75 -167.75,-4.47 -138.41,0.75 -276.8,3.98 -415.21,4.53 -276.77,1.11 -553.56,0.56 -830.33,1.69 -260.42,1.05 -520.86,3.43 -781.28,5.26 -16.49,0.1 -32.97,0.24 -49.45,0.67 -23.87,0.55 -45.85,7.96 -63.96,23.11 -22.63,18.97 -45.75,38 -65.08,60.12 -60.64,69.52 -119.12,140.95 -179.39,210.84 -68.87,79.86 -139.87,157.82 -207.79,238.43 -95.41,113.27 -179.76,235.89 -287.72,338.58 -9.46,9 -16.71,20.35 -25.2,30.45 -54.92,65.4 -101.57,137.94 -166.45,194.91 -4.9,4.29 -8.59,9.92 -12.9,14.95 -27.92,32.47 -56.13,64.72 -83.71,97.52 -33.86,40.34 -67.14,81.19 -100.74,121.79 -94.53,114.16 -188.34,228.89 -294.51,332.79 -28.19,27.57 -53.62,58.07 -78.99,88.35 -76.17,90.76 -144.92,187.89 -233.61,267.92 -19.34,17.45 -34.95,39.44 -50.48,60.7 -33.11,45.33 -68.88,88.11 -108.34,128.23 -32.29,32.8 -60.82,69.33 -90.51,104.65 -25.44,30.32 -49.4,61.84 -75.25,91.75 -129.23,149.56 -258.13,299.42 -388.6,447.88 -97.68,111.14 -196.9,220.98 -296.81,330.12 -73.41,80.2 -148,159.24 -215.15,244.96 -52.8,67.42 -106.34,134.33 -160.71,200.5 -37.62,45.8 -79.3,88.39 -115.44,135.29 -72.44,94 -147.57,185.59 -228.06,272.78 -8.91,9.65 -17.2,19.94 -25.23,30.4 -12.02,15.68 -12.86,39.13 -0.2,55.34 14.1,18.08 28.8,36.03 45.48,51.68 23.99,22.53 50.96,41.9 74.94,64.45 112.78,106.03 224.99,212.73 337.38,319.17 62.17,58.87 121.12,121.73 187.33,175.62 81.94,66.74 157.68,139.85 235.52,210.84 31.6,28.82 59.58,61.78 92.18,89.3 93.32,78.73 174.67,169.96 265.89,250.82 31.98,28.33 62.78,58.05 93.07,88.22 97.92,97.62 193.04,197.93 295.18,291.54 67.87,62.19 131.91,128.79 199.2,191.95 103.26,96.93 203.57,197.05 305.27,295.63 47.27,45.85 95.53,90.68 142.15,137.17 74.67,74.47 147.99,150.33 222.5,224.94 83.8,83.99 166.73,168.89 252.77,250.52 162.57,154.21 326.83,306.66 491,459.23 84.45,78.54 169.21,156.77 255.54,233.21 76.36,67.58 157.14,130.22 226.25,205.77 8.87,9.73 19.38,17.9 29.1,26.78 72.83,66.76 146.26,132.86 218.33,200.38 81.61,76.55 162.99,153.24 245.57,228.81 133.59,122.18 267.08,244.64 397.4,370.63 130.28,125.99 257.57,255 388.99,379.83 138.47,131.58 268.36,272.01 408.73,401.77 9.65,8.97 18.06,19.22 27.49,28.43 84.73,82.77 158.54,176.57 253.2,249.27 12.97,10.02 24.41,22.12 36.03,33.79 60.4,60.82 122.51,119.74 189.9,172.93 12.75,10.07 22.74,23.68 34.33,35.29 44.07,44.44 87.27,89.8 132.68,132.83 88.43,83.85 179.34,165.12 266.97,249.77 94.77,91.51 189.66,182.69 290.48,267.57 17.6,14.84 34.65,30.44 51.36,46.31 85.78,81.72 169.93,165.23 257.52,244.96 73.04,66.48 138.24,141.45 217.71,200.9 2.6,1.97 5.37,3.99 7.47,6.45 81.88,95.36 187.94,165.54 270.41,260.2 114.79,99.28 216.87,211.75 328,314.82 91.73,85.09 181.86,171.95 271.63,259.12 96.81,93.97 193.86,187.89 288.16,284.4 66.88,68.37 134.86,135.29 205.06,200.3 72.51,67.18 142.05,137.53 213.32,206.02 68.86,66.3 138.11,132.05 202.44,202.91 46.42,51.1 96.18,99.36 145.98,147.25 118.75,114.27 237.91,228.1 357.93,340.99 67.12,63.12 135.18,125.38 204.84,185.67 94.57,81.97 191,161.8 286.88,242.33 17.62,14.82 35.84,29.01 54.29,42.81 6.58,4.92 15.1,7.22 23.85,7.17 11.25,-0.07 22.86,-4.05 31.18,-11.42 4.93,-4.32 9.6,-8.97 14.39,-13.47 43.11,-40.7 86.2,-81.33 129.23,-122.09 11.88,-11.38 24.47,-22.19 34.98,-34.7 95.68,-113.9 206.99,-212.37 313.93,-314.95 80.83,-77.43 158.4,-158.07 239.99,-234.75 95.9,-90.24 188.83,-183.74 283.71,-275.16 66.39,-63.99 137.1,-123.84 200.22,-190.9 106.13,-112.82 219.27,-218.3 329.74,-326.61 58.83,-57.7 120.33,-112.7 177.41,-172.06 116.43,-121.18 242.14,-232.73 359.98,-352.4 87.86,-89.21 181.6,-172.68 262.27,-268.85 6.31,-7.58 13.02,-14.9 20.35,-21.51 127.35,-114.6 248.06,-236.2 372.4,-354.03 81.19,-76.96 165.81,-150.72 239.65,-235.23 2.16,-2.48 4.74,-4.58 7.19,-6.77 96.88,-84.63 186.51,-176.65 276.9,-268 76.5,-77.19 158.06,-149.35 237.2,-223.89 71.96,-67.76 143.78,-135.53 215.37,-203.56 52.6,-49.95 104.81,-100.28 157.06,-150.55 18.94,-18.24 37.38,-37.16 56.22,-55.59 30.61,-29.91 59.54,-61.85 92.42,-89.04 68.81,-56.78 131.81,-119.58 194.38,-182.82 122.81,-124.01 240.43,-253.07 365.56,-374.91 89.65,-87.25 180.56,-173.15 271.96,-258.51 55.42,-51.68 112.03,-102.13 160.91,-160.4 16.96,-20.16 36.35,-38.27 55.29,-56.58 113.63,-109.99 227.79,-219.44 341.11,-329.7 42.46,-41.28 82.42,-85.14 124.76,-126.55 129.71,-126.6 266.5,-245.82 391.25,-377.52 20.41,-21.54 40.93,-42.97 62.25,-63.55 101.77,-98.45 203.9,-196.65 305.92,-294.88 54.58,-52.59 106.8,-107.96 164.54,-156.82 53.1,-44.97 99.53,-95.93 146.82,-146.16 40.6,-43.17 80.42,-86.62 125.96,-125.04 42.73,-36.07 82.05,-76.23 122.06,-115.38 77.69,-76.05 155.07,-152.41 232.11,-229.12 100.44,-99.88 200.77,-199.85 300.44,-300.51 108.93,-110.07 216.47,-221.46 333.51,-323.2 14.88,-12.88 28.48,-27.38 42.36,-41.47 55.56,-56.33 110.29,-113.46 166.68,-168.94 46.99,-46.23 96.87,-89.48 143.77,-135.75 147.79,-145.85 294.89,-292.39 442.06,-438.87 63.05,-62.75 127.69,-124.09 188.07,-189.32 129.85,-140.4 266.27,-274.22 402.24,-408.48 182.88,-180.61 365.07,-361.84 547.56,-542.81 51.43,-51.07 103.12,-101.98 154.15,-153.5 11.48,-11.56 21.57,-24.76 30.66,-38.27 3.87,-5.73 5.98,-12.22 6.14,-18.63l0 -1.73c-0.16,-6.03 -2.06,-11.92 -5.83,-17.03z"/>
   <path class="fil1" d="M12134.33 9735.3c-92.04,5.81 -184.2,9.7 -276.02,17.86 -124.7,11.07 -249.77,17.7 -374.08,34.06 -38.88,5.12 -78.73,2.52 -118.17,3.27 -138.39,2.71 -276.54,12.5 -415.06,9.76 -52.82,-1.03 -105.53,-0.83 -157.33,-13.08 -19.86,-4.73 -39.6,-3.68 -58.23,4.16 -37.09,15.53 -76.25,19.57 -115.57,24.52 -29.26,3.68 -57.75,13.41 -86.92,17.67 -111.15,16.12 -223.18,19.94 -335.22,22.42 -4.85,0.17 -12,-5.97 -14.2,-10.83 -2.1,-4.82 -1.61,-14.33 1.83,-17.6 37.78,-36.64 76.44,-72.17 120.1,-102.07 155.04,-106.16 311.42,-210.14 468.11,-313.82 186.91,-123.61 378.89,-239.08 566.97,-360.7 177.13,-114.54 352.57,-231.69 527.26,-349.99 114.49,-77.52 226.43,-158.95 339.28,-238.99 16.09,-11.37 31.45,-23.98 46.13,-37.17 23.93,-21.39 28.16,-42.44 14.82,-70.45 -32.51,-68.45 -65.82,-136.51 -97.8,-205.23 -34.93,-75.09 -81.09,-143.22 -126.33,-212.09 -25.33,-38.49 -52.13,-76.07 -76.13,-115.37 -63.67,-104.2 -136.64,-201.91 -206.37,-301.91 -11.25,-16.14 -22.85,-32.17 -33.41,-48.78 -24.76,-38.91 -47.18,-79.37 -73.72,-116.92 -72.35,-102.41 -134.4,-211.27 -199.94,-317.86 -22.06,-35.92 -48.61,-50.52 -88.49,-48.98 -75.61,2.96 -151.13,2.72 -226.88,10.13 -137.66,13.47 -276.09,18.85 -414.23,27.68 -52.63,3.4 -105.59,4.28 -157.77,11.23 -65.63,8.73 -131.35,11.69 -197.21,11.56 -62.86,-0.17 -125.07,5.78 -187.1,14.63 -13.05,1.88 -26,6.49 -38.97,6.44 -112.08,-0.59 -222.88,16.07 -334.37,23.68 -73.62,-12.45 -143.78,5.89 -214.19,23.47 -19.04,4.79 -39.04,7.46 -58.65,7.82 -69.33,1.38 -137.88,10.73 -206.66,17.78 -62.23,6.42 -124.97,6.97 -185.68,25.97 -21.6,6.77 -45.56,8.65 -68.41,8.58 -113.11,-0.34 -221.35,31.74 -331.86,48.53 -133.51,20.27 -266.14,45.54 -400.51,61.14 -88.2,10.23 -176.47,22.42 -263.39,42.78 -57.66,13.52 -117,20 -174.78,33.11 -141.38,32.17 -285.01,51.85 -426.98,80.09 -64.59,12.82 -128.37,29.63 -192.68,43.83 -176.94,39.04 -353.92,77.68 -530.91,116.42 -6.42,1.41 -13.08,2 -19.35,3.88 -126.3,37.33 -255.42,63.52 -382.86,96.35 -15.95,4.09 -32.14,7.68 -47.59,13.31 -86.81,31.6 -177.62,49.22 -265.56,76.76 -21.9,6.89 -43.17,15.82 -65.13,22.56 -106.94,32.9 -214.24,64.91 -321.07,98.26 -47.12,14.71 -93.36,32.11 -140.06,48.02 -31.83,10.86 -58.21,28.89 -81.94,53.07 -69.25,70.54 -141.98,137.82 -209.4,210.03 -72.01,77.02 -150.94,147.07 -222.26,224.78 -73.42,80.05 -149.49,157.68 -221.35,239.12 -45.74,51.85 -88.13,106.62 -137.66,155.15 -9.37,9.19 -18.97,18.16 -28.96,26.71 -11.33,9.7 -34.87,10.53 -46.37,2.26 -5.31,-3.93 -11.07,-7.35 -15.79,-11.89 -111.48,-107.48 -232.19,-204.83 -340.63,-315.89 -82.77,-84.82 -172.68,-162.61 -259.29,-243.58 -14.46,-13.52 -29.5,-26.52 -42.75,-41.15 -90.68,-100.33 -186.45,-195.65 -282.49,-290.7 -35.09,-34.79 -66.79,-72.96 -100.58,-109.07 -18.53,-19.75 -29.48,-43.48 -39.35,-68.01 -5.47,-13.49 8.16,-35.08 23.5,-36.83 13.08,-1.52 26.19,-3.26 39.27,-3.21 79.45,0.53 157.52,13.91 235.14,28.35 38.59,7.24 76.28,20.69 113.22,34.4 89.44,33.24 178.24,68.17 267.11,102.79 12.23,4.76 23.81,11.26 35.35,17.56 22.15,12.15 28.59,28.63 23.87,57.81 -1.52,9.43 -3.77,19.26 -2.41,28.42 0.73,4.73 8.85,12.28 13.2,11.92 19.47,-1.33 39.82,-1.94 58.02,-8.22 183.63,-63.46 368.87,-121.87 549.93,-193.06 131.61,-51.76 264.93,-99.94 401.58,-137.91 15.84,-4.42 31.44,-9.89 46.79,-15.92 169.03,-66.04 343.69,-114.35 517.04,-167.36 148.11,-45.27 296.39,-89.05 447.08,-125.08 64.06,-15.32 127.69,-33.3 190.1,-54.31 106.5,-35.9 216.4,-57.4 325.41,-82.97 35.29,-8.27 70.76,-15.98 105.54,-26 66.63,-19.19 134.56,-32.38 202.54,-45.16 132.76,-25 263.05,-61.86 396.92,-81.47 29.26,-4.28 57.77,-13.53 86.76,-19.72 25.78,-5.53 51.65,-10.34 77.62,-14.88 32.38,-5.61 64.77,-11.67 97.4,-15.65 75.39,-9.13 147.54,-33.57 222.78,-44 71.68,-9.89 142.37,-27.08 213.94,-37.81 94.47,-14.12 189.43,-25.1 284.12,-37.49 26.14,-3.43 52.71,-5.26 78.3,-11.07 112.6,-25.6 227.51,-37 341.01,-57.05 12.97,-2.32 26.11,-4.59 39.23,-4.98 112.03,-3.4 222.93,-20.69 334.55,-28.68 79.08,-5.63 156.99,-17.83 234.86,-31.44 12.97,-2.26 25.61,-6.94 38.65,-8.05 78.75,-6.77 157.43,-14.35 236.29,-18.75 138.2,-7.69 276.24,-15.12 413.17,-36.83 29.18,-4.62 59.12,-4.1 88.68,-6.17 52.57,-3.74 105.06,-9.02 157.66,-11.21 161.28,-6.66 321.26,-31.88 483.28,-29.64 121.85,1.72 243.8,-5.81 365.73,-8.07 52.6,-1 105.33,0.94 157.99,1.34 52.71,0.36 105.45,1.72 158.11,0.44 92.2,-2.21 184.24,-9.4 276.57,0.78 35.86,4.01 72.48,3.46 108.74,2.43 128.68,-3.59 257.05,5.92 385.55,7.71 39.53,0.53 79.15,1.3 118.64,0.53 33.08,-0.66 65.42,0.36 98.28,6.86 28.79,5.7 58.94,5.34 88.55,6.14 118.61,3.29 237.3,4.91 355.92,9.25 118.58,4.36 237,12.08 355.52,16.78 79.07,3.1 158.19,3.49 237.33,5.04 26.33,0.53 52.85,-0.84 79.04,1.49 157.66,13.93 315.67,21.73 473.85,25.75 39.29,1.02 78.76,-1.67 118.05,-3.82 4.61,-0.25 10.21,-7.33 12.94,-12.5 4.64,-8.63 -0.69,-22.32 -8.46,-24.76 -9.26,-2.93 -18.42,-7.05 -27.91,-8.19 -26.16,-3.04 -52.62,-4.09 -78.76,-7.38 -9.43,-1.16 -18.59,-5.89 -27.49,-9.87 -17.92,-8.1 -24.16,-38.64 -9.37,-50.17 15.35,-11.99 31.14,-25.16 49.03,-31.91 73.92,-27.99 148.68,-53.89 223.26,-80.27 18.59,-6.58 38,-11 56.28,-18.36 140.88,-56.61 287.05,-96.6 432.55,-138.88 120.09,-34.92 240.12,-70.21 360.42,-104.42 53.78,-15.32 108.07,-28.9 162.3,-42.44 83.02,-20.74 166.01,-41.87 250.8,-54.31 9.81,-1.46 19.56,-3.38 29.1,-5.92 149.7,-40.32 302.67,-65.05 454.44,-94.99 122.76,-24.23 247.48,-38.36 371.35,-56.97 48.86,-7.36 98,-13.11 146.52,-22.37 94.65,-18.05 190.22,-19.83 285.8,-16.73 81.17,2.63 154.04,34.27 220.87,78.29 57.85,38.08 110.88,83.08 161.29,130.47 110.45,103.82 213.8,214.65 315.03,327.43 13.72,15.28 13.99,38.34 -0.21,54.07 -33.14,36.64 -66.1,73.56 -100.81,108.69 -99.58,100.8 -196.84,204.23 -301.21,299.81 -75.44,69.11 -149.19,139.48 -220.7,212.46 -4.62,4.7 -10.08,8.74 -14.08,13.88 -79.56,101.74 -179.75,183.24 -269.44,275.08 -50.6,51.88 -102.17,102.98 -150.72,156.71 -97.34,107.75 -207.5,202.35 -310.16,304.61 -74.65,74.37 -154.51,143.46 -229.07,218.09 -114.07,114.24 -228.64,228.04 -344.05,340.9 -63.58,62.19 -129.11,122.46 -194.3,182.96 -43.47,40.29 -89.16,78.42 -131.62,119.74 -47.13,45.8 -91.21,94.63 -137.56,141.26 -44.11,44.3 -86.7,90.21 -136.64,128.69 -25.94,20.04 -48.47,44.6 -72.1,67.52 -99.31,96.38 -198.2,193.28 -297.73,289.36 -56.91,54.88 -114.9,108.68 -172.23,163.15 -11.92,11.29 -25.08,22.07 -34.21,35.51 -31.91,46.94 -74.01,83.93 -115.74,121.27 -103.28,92.29 -202.03,189.07 -294.96,291.81 -19.82,21.85 -41.67,42.2 -64.45,61.03 -30.04,24.66 -71.79,17.28 -95.33,-14.95 -5.79,-8 -12.5,-15.99 -15.52,-25.09 -14.47,-43.67 -37.5,-84.12 -46.45,-129.9 -5.72,-29.07 -13.69,-57.74 -21.96,-86.16 -20.16,-69.58 -41.1,-138.78 -72.43,-204.62 -16.86,-35.54 -27.59,-74.07 -39.35,-111.81 -6.86,-21.88 -12.91,-44.7 -14.76,-67.39 -6.06,-72.35 7.05,-137.83 71.1,-184.04 34.65,-25.08 65.82,-55.2 101.61,-78.32 50.05,-32.38 95.18,-70.55 139.51,-109.54 44.8,-39.41 93.36,-71.27 145.88,-99.83 54.75,-29.64 106.16,-66.42 155.44,-104.68 54.65,-42.41 104.92,-90.29 157.63,-135.14 32.52,-27.77 64.49,-56.73 99.61,-80.89 40.93,-28.1 79.23,-59.01 116.65,-91.38 52.32,-45.23 104.25,-91.01 158.07,-134.4 28.05,-22.62 59.93,-40.48 89.91,-60.78 19.01,-12.86 38.11,-25.58 56.08,-39.77 3.56,-2.85 4.54,-12.8 2.46,-17.69 -2.07,-4.93 -8.93,-9.19 -14.52,-10.87 -5.92,-1.83 -13.47,-2.02 -19.3,0.05 -131.33,45.91 -253.92,108.1 -365.53,192.39 -60.49,45.65 -121.74,89.68 -174.58,144.85 -29.5,30.75 -63.64,57.36 -96.98,84.18 -59.01,47.48 -108.88,104.98 -168.86,151.3 -5.26,4.07 -9.65,9.15 -15.07,12.77 -95.98,64.47 -178.81,145.22 -268.94,216.9 -87.63,69.69 -174.55,140.6 -267.83,202.38 -151.79,100.36 -311.26,185.4 -492.03,223.23 -91.61,19.16 -173.03,62.64 -251.07,112.8 -2.69,1.69 -5.28,4.36 -6.63,7.19 -2.74,5.81 -7.85,13.1 -6.18,17.7 3.08,8.46 9.58,21.21 15.96,21.99 48.7,6.32 97.73,13.3 146.71,2.71 77.84,-16.9 150.99,-45.63 220.57,-84.74 60.34,-33.84 121.93,-65.45 183.74,-96.62 26.41,-13.31 54.15,-24.61 82.34,-33.44 21.69,-6.77 44.98,-9.23 67.74,-11.67 22.9,-2.42 39.93,8.72 45.38,29.02 13.68,50.88 26.65,101.98 39.71,152.99 1.64,6.35 2.4,12.94 3.45,19.5 12.73,81.85 38.51,159.26 74.53,233.98 17.03,35.32 28.21,73.67 39.82,111.34 10.68,34.59 17.28,70.41 27.8,105.03 8.76,28.93 11.47,58.07 9.84,87.89 -1.3,23.39 -6.58,45.59 -21.38,64.63 -28.26,36.53 -54.42,74.8 -85.14,109.07 -48.38,53.98 -100.86,104.14 -149.73,157.66 -135.7,148.72 -289.82,278.45 -431.82,420.71 -48.84,48.86 -104.23,91.09 -148.87,144.38 -19.02,22.79 -38.27,45.3 -58.1,67.34 -37.63,41.84 -77.09,81.63 -131.1,102.36 -16.13,6.16 -30.13,14.71 -37.2,30.3 -18.3,40.16 -49.28,69.81 -80.94,98.49 -66.02,59.68 -132.49,118.85 -199.75,177.15 -52.35,45.38 -102.23,92.78 -147.51,145.58 -47.1,55.08 -98.03,106.64 -151.59,155.77 -94.63,86.87 -185.87,177.54 -281.22,263.52 -76.05,68.55 -147.85,140.7 -216.8,216.34 -68.8,75.47 -144.21,144.36 -229.35,201.76 -20.8,14.02 -42.78,18.17 -65.51,8.43 -45.41,-19.38 -90.83,-38.9 -135.04,-60.8 -130.2,-64.55 -251.96,-142.89 -370.22,-227.04 -85.84,-61.12 -173.69,-119.53 -257.71,-183.1 -86.67,-65.46 -169.81,-135.67 -254.37,-203.86 -5.14,-4.1 -9.65,-9.11 -14.82,-13.18 -99,-76.73 -186.17,-167.11 -283.92,-245.35 -51.41,-41.12 -101.18,-84.26 -156.71,-120.04 -13.81,-8.97 -27,-19.13 -39.1,-30.21 -85.15,-78.42 -185.17,-137.11 -275.86,-208.09 -17.9,-13.99 -38.74,-24.34 -58.96,-34.93 -2.85,-1.52 -10.51,4.59 -14.85,8.38 -1.66,1.44 -1.71,7.44 -0.11,9.41 8.11,10.04 16.07,20.66 25.83,28.93 47.91,40.4 97.55,78.65 144.22,120.3 93.5,83.32 185.17,168.64 278.15,252.54 73.42,66.12 146.18,133.27 222.21,196.38 70.98,58.87 145.88,113.05 219.19,169.08 68.11,52.04 136.96,103.09 204.37,155.97 38.68,30.34 75.17,63.53 112.63,95.41 9.51,27.91 29.72,40.04 58.07,46.02 14.99,3.15 28.02,16.43 41.54,25.6 40.85,27.86 82.05,55.15 122.17,83.99 91.07,65.26 181.61,131.16 272.15,197.17 15.92,11.68 30.94,24.71 45.77,37.73 15.77,13.82 17.67,34.73 5.34,53.51 -7.22,10.97 -14.19,22.29 -22.88,32.09 -144.55,162.43 -288.12,325.38 -450.62,471.2 -120.04,107.8 -235.2,221.37 -345.16,339.78 -38.18,41.16 -78.21,80.2 -122.43,114.91 -64.93,51.07 -121.41,111.17 -180.15,168.92 -56.33,55.41 -115.5,107.96 -173.69,161.41 -11.14,10.32 -34.45,11.6 -46.34,3.75 -8.24,-5.45 -16.87,-10.52 -24.17,-17.04 -41.95,-37.11 -85.09,-73.13 -125,-112.31 -136.34,-134.01 -277.45,-262.8 -417.36,-392.93 -79.57,-74.03 -160.35,-146.74 -239.8,-220.79 -74.63,-69.56 -146.53,-142.27 -213.85,-219.25 -12.96,-14.85 -27.21,-28.68 -41.73,-42.03 -70.3,-64.69 -143.72,-126.18 -210.57,-194.31 -80.66,-82.15 -166.5,-159.26 -242.88,-245.78 -19.53,-22.1 -42.33,-41.54 -65.05,-60.57 -98.69,-82.74 -188.07,-175.06 -276.98,-267.89 -15.93,-16.64 -31.86,-33.38 -49.04,-48.72 -93.41,-83.43 -187.96,-165.57 -280.55,-249.89 -53.54,-48.77 -104.14,-100.82 -155.83,-151.62 -4.61,-4.55 -7.49,-10.81 -11.26,-16.12 -6.76,-9.54 -6.19,-28.2 2.6,-36.56 50.22,-47.42 100.64,-94.69 151.29,-141.73 16.87,-15.68 34.58,-30.45 51.91,-45.63 34.68,-30.41 67.44,-63.37 104.42,-90.67 92.89,-68.66 179.72,-144.52 268.71,-217.83 68.62,-56.56 139.28,-110.54 208.88,-165.79 23.26,-18.43 45.72,-37.81 69.14,-56 44.16,-34.25 88.06,-68.22 135.91,-98.06 64,-39.93 121.79,-89.68 182.11,-135.4 23.6,-17.86 45.68,-38.1 70.35,-54.29 154.25,-101.32 302.48,-211.22 452.89,-317.91 52.68,-50.98 119.44,-81.59 178.4,-123.62 83.04,-59.23 166.81,-117.69 252.76,-172.85 33.14,-21.28 63.03,-47.67 94.25,-71.95 26.03,-20.24 52.27,-40.21 77.6,-61.23 55.78,-46.21 121.04,-64.19 191.93,-66.29 89.07,-2.63 178.42,-3.47 266.67,8.66 75.87,10.4 151.32,7.08 226.76,2.05 108.48,-7.31 216.75,-17.98 325.11,-27.33 19.72,-1.72 39.6,-2.68 58.98,-6.3 74.97,-13.83 150.67,-15.57 226.56,-14.41 56.19,0.94 111.83,-3.56 167.55,-11.12 173.26,-23.45 347.07,-36.81 522.17,-28.02 62.44,3.18 125.24,-1.27 187.8,0.75 70.94,2.24 136.95,-17.2 202.38,-40.43 8.77,-3.1 16.12,-10.73 23.59,-16.93 11.94,-10.01 9.02,-35.48 -5.37,-41.9 -11.75,-5.2 -24.42,-11.37 -36.89,-11.75 -49.39,-1.3 -98.83,-0.56 -148.25,-0.56 -0.11,-1.83 -0.16,-3.58 -0.22,-5.44z"/>
   <path class="fil2" d="M6437.15 7031.53c-8.73,-65.1 -5.64,-131.6 -25.08,-195.51 -7.6,-25.06 -11.07,-51.44 -16.01,-77.33 -17.95,-93.58 -30.09,-188.35 -57.61,-280.03 -5.66,-18.83 -8.16,-38.63 -12.28,-57.94 -5.47,-25.75 -10.7,-51.57 -16.76,-77.21 -11.42,-48.31 -25.33,-56.75 -77.9,-48.26 -32.44,5.23 -64.99,10.04 -97.35,15.79 -71.15,12.64 -143.85,16.43 -213.57,37.42 -28.31,8.54 -56.64,18.14 -85.67,23.04 -153.62,26 -298.47,80.61 -443.35,134.78 -64.66,24.14 -127.49,53.08 -190.82,80.73 -17.98,7.88 -35.41,17.7 -51.75,28.65 -40.89,27.42 -81.02,56.04 -121.48,84.17 -17.73,12.34 -16.87,35.3 2.96,48.95 81.45,56.05 153.75,123.59 231.67,184.1 31.05,24.14 59.59,51.73 87.88,79.14 104.2,100.8 202.07,207.41 293.16,320.21 16.52,20.43 34.58,39.66 51.97,59.38 14.28,16.11 32.55,22.92 53.21,18.42 35.35,-7.66 70.3,-16.87 105.39,-25.73 92.29,-23.25 179.84,-63.4 275.02,-76.3 3.21,-0.46 6.39,-1.63 9.41,-2.9 3.04,-1.24 5.72,-3.21 8.73,-4.48 14.52,-5.98 23.95,-25.41 20.24,-40.68 -11.15,-45.67 -36.56,-83.82 -61.67,-122.57 -50.12,-77.27 -99.89,-154.72 -147.79,-233.35 -37.8,-62.1 -65.74,-128.84 -78.84,-200.81 -3.51,-19.17 -2.93,-39.19 -2.93,-58.83 0,-6.08 3.76,-12.42 6.74,-18.11 1.27,-2.46 5.09,-5.28 7.63,-5.14 5.69,0.3 14.82,0.64 16.43,3.93 38.58,79.91 73.59,161.44 120.65,237.3 39.86,64.21 74.9,131.41 112.98,196.79 21.54,36.94 43.91,73.5 67.84,108.95 29.81,44.19 102.65,84.74 174.81,58.74 23.61,-8.49 40.79,-21.54 43.47,-47.75 3.4,-32.69 5.84,-65.54 9.2,-104.76 0.42,-9.99 3.6,-26.74 1.47,-42.81zm-2290.32 -594.1c-86.06,60.81 -171.34,122.7 -257.29,183.68 -155.83,110.58 -311.34,221.71 -468.13,330.94 -110.96,77.3 -215.8,162.41 -322.02,245.76 -23.28,18.3 -45.62,38.08 -66.48,59.07 -13.79,13.82 -24.55,30.78 -35.95,46.82 -7.57,10.65 -7.29,27.68 0.62,37.09 23.2,27.67 45.41,56.44 70.74,82.07 55.55,56.28 113.08,110.64 169.29,166.25 17.01,16.84 36.06,27.73 60.01,31.28 117.31,17.25 234.48,35.35 351.79,52.66 88.41,12.99 175.2,34.97 257.25,68.42 127.73,52.01 261.11,91.14 380.94,162.15 32.54,19.38 67.89,19.91 103.92,1.94 41.12,-20.58 84.26,-37.02 126.32,-55.75 54.13,-24.03 110.84,-41.98 165.01,-65.13 57.74,-24.72 117.4,-42.83 176.05,-64.26 188.72,-69 377.01,-138.99 565.2,-209.49 33.85,-12.69 66.1,-29.7 99.26,-44.27 53.38,-23.53 47.07,-45.36 24.39,-84.66 -9.76,-16.86 -23.73,-31.55 -36.97,-46.15 -15.5,-17.01 -33.44,-31.91 -48.37,-49.36 -60.15,-70.3 -128.63,-132.14 -195.94,-195.25 -74.69,-70.02 -156.9,-130.77 -236.97,-194.05 -134.43,-106.22 -270.96,-209.39 -418.22,-298.11 -119.16,-71.71 -243.39,-131.44 -373.3,-180.14 -12.12,-4.54 -25.28,-6.28 -40.13,-9.88 -16.87,9.24 -35.11,17.12 -51.03,28.35zm10942.29 -1775.72c-85.04,10.78 -169.33,25.11 -253.68,40.39 -80.92,14.69 -162.69,24.4 -244.58,33.77 -94.66,10.86 -188.1,32.44 -281.89,50.33 -61.42,11.73 -122.37,26.03 -183.84,37.56 -47.18,8.87 -86.01,30.91 -119.72,64.57 -74.61,74.45 -151.59,146.55 -224.77,222.35 -169.3,175.44 -332.96,356.16 -494.63,538.65 -109.26,123.28 -212.08,252.29 -328.77,368.97 -13.92,13.94 -26.36,29.45 -39.19,44.47 -57.9,67.55 -114.13,136.58 -173.89,202.43 -59.79,65.9 -108.91,140.73 -173.01,202.89 -9.22,8.94 -15.3,21.32 -22.18,32.47 -12.2,19.89 -4.54,40.93 16.65,46.16 48.09,11.8 96.46,20.58 146.42,20.74 52.69,0.22 105.45,2.43 158.08,5.53 65.77,3.82 131.5,8.02 197.04,14.66 114.68,11.56 229.97,15.2 344.44,29.86 94.71,12.15 189.93,21.1 284.92,31.03 16.35,1.69 32.93,1.41 49.42,1.67 52.67,0.69 105.41,1.24 158.1,1.83 13.2,0.1 26.35,0.6 39.52,0.16 17.43,-0.56 31.77,-11.28 36.65,-27.57 2.84,-9.41 4.33,-19.25 6.38,-28.91 4.48,-20.9 17.48,-35.06 36.06,-44.11 11.83,-5.74 23.95,-11.74 36.61,-14.93 89.6,-22.65 173.48,-61.58 260.61,-91.28 115.3,-39.32 232.06,-74.67 343.81,-123.89 5.98,-2.63 12.66,-3.65 18.97,-5.48 66.34,-19.27 132.06,-40.9 199.14,-57.05 47.73,-11.47 92.86,-34.29 143.51,-34.37 9.37,-0.03 18.99,-5.09 28.07,-8.71 92.06,-36.91 189.98,-52.71 285.03,-78.54 76.17,-20.66 154.24,-34.29 231.25,-51.85 166.97,-38.11 333.81,-76.79 500.77,-114.99 12.8,-2.94 25.97,-5.11 39.04,-5.89 59.33,-3.46 117.54,-15.39 176.3,-22.21 62.3,-7.24 123.89,-17.95 185.25,-29.61 42.23,-8.03 84.32,-13.45 127.32,-14.86 29.51,-0.96 59.41,-3.87 88.19,-10.14 45.49,-9.95 91.43,-12.48 137.53,-13.72 59.23,-1.61 118.6,0.89 177.07,-13.31 15.71,-3.82 32.8,-1.72 49.25,-2.63 31.25,-1.72 59.41,7.25 81.59,28.81 45.13,43.92 96.95,79.09 147.39,116.04 90.45,66.34 172.9,142.46 260.83,211.87 18.03,14.29 36.09,28.62 55.03,41.59 3.87,2.66 13.58,1.46 17.45,-1.77 4.18,-3.56 6.58,-11.47 6.58,-17.48 0,-9.7 -1.32,-19.86 -4.39,-29.04 -9.35,-28.1 -19.06,-56.17 -30.01,-83.72 -56.31,-141.42 -128.96,-274.21 -217.64,-397.75 -42.22,-58.76 -88.68,-114.57 -134.62,-170.61 -22.87,-27.93 -46.9,-55.55 -73.94,-79.29 -61.92,-54.28 -124.05,-108.62 -189.63,-158.32 -131.52,-99.83 -274.89,-180.82 -423.14,-253.09 -109.43,-53.35 -220.6,-102.95 -331.72,-152.65 -38.36,-17.17 -74.75,-23.86 -114.13,-7.49 -21.29,8.84 -43.41,15.85 -64.21,25.57 -41.73,19.53 -84.07,38.3 -124.03,61.09 -77.27,44.03 -159.48,77.79 -237.3,121.09 -126.58,70.39 -254.98,137.45 -380.97,209.18 -82.85,47.18 -168.56,89.38 -249.42,140.35 -78.01,49.2 -157.82,95.13 -239.56,138.17 -69.74,36.69 -134.57,82.69 -202.33,123.3 -113.03,67.76 -226.85,134.21 -339.98,201.82 -56.48,33.74 -109.82,72.05 -169.7,100.72 -80.11,38.36 -157.79,81.94 -235.63,124.86 -60.43,33.33 -118.84,70.38 -179.46,103.37 -104.14,56.72 -209,112.09 -314.23,166.68 -20.07,10.37 -43.22,15.09 -65.37,20.82 -4.5,1.16 -13.71,-3.74 -15.63,-8.11 -1.99,-4.47 1.06,-12.47 4.13,-17.56 3.31,-5.45 8.68,-10.07 13.98,-13.74 35.35,-24.17 70.41,-48.64 106.36,-71.79 102.41,-65.98 195.6,-145.29 301.68,-205.97 45.77,-26.16 89.41,-55.94 134.68,-82.9 98.91,-58.9 206.15,-103.71 297.92,-174.95 7.63,-5.92 17.78,-8.49 26.46,-13.28 40.29,-22.37 80.72,-44.64 120.71,-67.56 142.83,-81.94 285.43,-164.2 428.23,-246.18 14.3,-8.19 29.23,-15.18 43.86,-22.7 67.32,-34.72 136.29,-66.52 201.61,-104.65 165.01,-96.35 333.7,-185.98 503.94,-272.31 100.05,-50.72 196.12,-108.11 294.52,-161.42 72.21,-39.1 141.93,-82.72 212.52,-124.67 8.27,-4.93 15.44,-11.92 22.85,-18.2 7.97,-6.74 6.55,-29.83 -2.74,-35.23 -19.84,-11.48 -39.47,-23.84 -60.43,-32.96 -106.28,-46.18 -217.69,-75.56 -331.64,-94.58 -87.57,-14.63 -175.27,-32.28 -265.1,-18.95 -12.88,1.92 -26.32,0.28 -45.62,0.28 -63.11,-3.61 -132.02,-1.93 -201.01,6.84zm-4306.36 2636.09c22.76,-0.6 45.69,2.57 68.47,4.82 10.1,1.05 22.45,18.97 20.27,30.39 -3.02,15.85 -5.18,32.89 -12.83,46.6 -19.14,34.35 -40.47,67.53 -62.16,100.36 -27.17,41.07 -55.4,81.45 -83.53,121.82 -25.66,36.84 -65.85,46.7 -102.21,25.11 -31.03,-18.43 -62.61,-36 -92.17,-56.55 -70.22,-48.84 -144.77,-90.27 -218.66,-132.97 -28.29,-16.35 -55.5,-34.76 -82.49,-53.26 -17.38,-11.89 -12.42,-39.35 8.24,-47.15 15.24,-5.7 30.82,-12.56 46.74,-14.1 78.24,-7.67 156.6,-13.75 234.95,-20.33 0.11,1.59 0.25,3.18 0.38,4.81 91.65,-3.28 183.3,-7.08 275,-9.54zm-4613.2 789.9c4.25,3.27 7.57,11.76 6.49,16.9 -1.97,9.24 -6.08,18.83 -11.83,26.25 -36.26,46.56 -73.34,92.53 -109.98,138.8 -32.67,41.25 -65.43,82.44 -97.57,124.1 -60.23,78.12 -121.38,155.61 -179.65,235.2 -81.58,111.42 -160.25,224.83 -217.97,351.41 -19.05,41.73 -45.91,79.89 -65.77,121.38 -38.41,79.86 -77.04,159.78 -103.78,244.8 -5.87,18.58 -15.74,36.23 -25.78,53.07 -20.99,35.03 -59.9,45.29 -93.67,23.2 -57.68,-37.75 -115.73,-75.25 -165.06,-124.27 -58.27,-57.92 -120.61,-111.64 -172.87,-175.61 -19.53,-23.79 -20.55,-47.7 -10.24,-73.48 20.88,-52.13 48.4,-100.96 83.35,-144.85 79.86,-100.19 161.34,-199.14 241.64,-299.06 57.8,-71.84 121.2,-137.99 193.2,-195.96 15.17,-12.2 26.73,-28.99 40.67,-42.89 48.96,-48.7 97.62,-97.74 147.49,-145.53 33.69,-32.22 72.75,-54.91 119.47,-65.31 73.73,-16.46 146.46,-37.56 220.38,-53.13 57.71,-12.15 116.54,-18.84 175.19,-27.96 9.3,4.34 18.89,7.22 26.28,12.93zm3532.16 -508.5c77.71,11.65 155.8,25.42 229.17,56.34 3.01,1.29 5.98,3.1 9.15,3.62 85.54,14.76 160.98,56.69 240.32,88.43 70.79,28.35 137.14,63.61 198.37,108.96 15.76,11.64 33.62,20.53 50.44,30.72 23.34,14.11 48.95,18.86 75.77,18.43 148.25,-2.52 296.43,-4.65 444.63,-7.77 36.17,-0.75 72.4,-3.45 108.32,-7.63 24.34,-2.77 42.95,-16.71 51.69,-40.57 25.94,-71.1 45.98,-144.06 65.4,-217.21 10.12,-38.04 21.76,-75.79 34.43,-113.1 8.57,-25.36 35.62,-33.99 55.45,-18.95 15.71,11.92 31.63,23.9 45.37,37.94 85.2,87.31 164.99,179.21 234.3,280.04 50.38,73.23 100.63,146.46 145.68,223.25 16.6,28.29 36.34,54.89 56.77,80.62 18.94,23.84 31.15,50.22 39,79.08 4.58,16.98 -4.8,43.63 -18.79,53.27 -8.13,5.5 -16.62,10.65 -25.27,15.25 -29.04,15.43 -57.83,31.39 -87.41,45.65 -172.23,82.96 -337.94,177.53 -503.2,273.39 -119.77,69.52 -237.61,141.48 -351.1,220.73 -13.47,9.37 -26.73,20.37 -41.84,25.86 -38.08,13.91 -76.19,21.16 -111.09,-10.51 -44.16,-39.9 -93.04,-73.17 -146.07,-100.52 -37.94,-19.53 -73.51,-44.84 -112.99,-60.15 -125.59,-48.78 -251.03,-97.21 -384.82,-122.4 -110.23,-20.72 -220.43,-35.21 -332.16,-43.53 -115.04,-8.56 -230.11,-11.58 -345.26,-15.04 -85.77,-2.59 -171.08,-1.19 -256.28,10.57 -32.13,4.47 -65.36,0.22 -97.97,2.29 -128.09,8.03 -255.81,20.55 -383.62,32.09 -141.48,12.77 -280.08,40.92 -420.15,61.03 -130.39,18.72 -259.87,42.69 -388.22,72.48 -67.36,15.57 -134.31,33.18 -201.87,47.87 -115.82,25.25 -231.58,50.97 -349.42,65.82 -90.29,11.34 -177.23,-0.38 -260.77,-36.78 -18.11,-7.85 -36.37,-15.46 -54.84,-22.4 -37.83,-14.24 -69.14,-37.69 -96.76,-66.78 -16.6,-17.45 -24.84,-37.56 -27.54,-61.6 -8.14,-71.48 12.77,-137.74 38.66,-201.76 38.8,-96.1 96.84,-178.65 181.72,-241.62 50.41,-37.44 101.71,-72.28 157.54,-101.3 102.47,-53.18 208.39,-97.56 316.54,-137.66 86.28,-32.06 173.5,-61.3 260.37,-91.62 30.88,-10.78 63.55,-16.4 95.41,-24.44 38.16,-9.71 76.93,-17.64 114.32,-29.75 37.84,-12.26 76.33,-18.5 115.29,-25.34 58.24,-10.17 115.16,-27.69 172.93,-41 32.03,-7.33 64.54,-12.47 96.89,-18.48 16.21,-2.96 32.83,-4.23 48.6,-8.65 85.86,-24.15 174.24,-34.1 261.97,-47.83 12.97,-2.01 26.38,-2.51 39.02,-5.86 83.4,-22.2 168.69,-28.37 254.39,-31.06 92.2,-2.93 184.43,-5.2 309.18,-8.65 128.87,1.29 290.48,2.4 450.38,26.24zm1621.49 -481.24c-69.19,1.94 -138.41,7.17 -207.52,5.92 -151.91,-2.66 -302.7,12.03 -453.78,23.63 -39.39,2.99 -78.87,8.9 -118.12,7.65 -72.81,-2.37 -145.15,3.99 -216.98,12.12 -55.72,6.3 -111.42,10.73 -167.3,13.52 -141.57,7.01 -283.13,13.2 -423.28,36.54 -12.91,2.16 -26.29,1.43 -39.44,2.77 -88.51,9.12 -176.99,18.36 -265.48,27.76 -29.45,3.15 -58.82,8 -88.38,10.01 -59.32,4.02 -118.08,10.27 -175.33,27.88 -18.67,5.75 -38.72,8.13 -58.33,9.74 -151.16,12.33 -301.68,29.31 -450.91,57.22 -42.09,7.85 -84.34,15.2 -126.77,21.15 -166.6,23.23 -331.39,56.03 -495.57,92.29 -51.44,11.39 -103.26,23.47 -155.52,28.31 -75.86,7.03 -149.28,26.03 -223.07,41.71 -77.24,16.4 -154.72,32.36 -232.26,46.59 -129.65,23.82 -257.58,55.15 -386.69,81.11 -35.48,7.16 -71.38,13.69 -105.81,24.58 -75.5,23.95 -153.1,38.91 -229.97,56.77 -105.84,24.58 -211.73,48.7 -316.73,76.61 -130.51,34.62 -260.64,71.08 -392.42,100.02 -70.79,15.63 -141.76,30.59 -211.33,50.58 -79.09,22.66 -157.28,48.87 -234.9,76.36 -27.46,9.7 -54.84,24.33 -77.3,42.81 -40.65,33.33 -79.04,69.74 -115.71,107.46 -52.73,54.29 -101.8,112.11 -154.86,166.03 -55.57,56.53 -108.33,115.27 -156.59,178.1 -48.2,62.72 -95.62,126.08 -144.82,188.03 -57.33,72.28 -116.4,143.16 -174.25,214.99 -10.26,12.74 -20.02,26.43 -26.76,41.11 -3.57,7.63 -3.65,21.13 0.91,27.4 11.45,15.85 25.81,29.84 40.15,43.2 55.4,51.74 111.95,102.21 166.65,154.59 35.73,34.16 68.49,71.29 103.52,106.21 72.34,72.1 144.49,144.42 218.1,215.21 90.33,86.79 183.71,170.02 284.19,245.3 41.71,31.28 85.5,48.17 137.16,45.57 9.88,-0.46 19.78,-0.61 29.65,-0.83 161.48,-2.68 322.9,-5.2 484.31,-8.22 19.71,-0.35 39.82,-1.29 58.95,-5.55 51.91,-11.48 104.52,-12.69 157.22,-15.09 55.95,-2.6 111.82,-8.06 167.73,-10.02 89.05,-3.1 176.54,-19.69 264.89,-28.45 52.39,-5.26 104.88,-8.17 156.31,-22.21 25.03,-6.78 52,-7.08 78.17,-8.88 55.81,-3.87 112.26,-2.99 167.42,-11.2 68.58,-10.2 137.14,-17.2 206.36,-21.35 78.93,-4.73 158.14,-10.89 236.09,-23.49 45.4,-7.36 90.24,-17.68 136.45,-20.22 16.25,-0.89 32.44,-5.28 48.5,-8.71 96.6,-20.77 193.78,-38 291.86,-49.92 36.01,-4.37 71.97,-8.96 107.78,-14.46 157.16,-23.95 314.21,-29.76 472.95,-12.31 77.68,8.49 146.63,31.99 213.66,69.91 40.43,22.9 66.15,57.25 79.56,97.13 23.74,70.4 23.66,142.94 -11.37,211.3 -78.67,153.7 -197.8,269.97 -340.28,364.3 -5.47,3.61 -11.39,6.65 -17.25,9.64 -117.92,59.93 -240.43,108.3 -368.44,141.48 -111.5,28.94 -224.31,51.23 -339.13,64.49 -107.9,12.51 -215.12,30.91 -322.61,46.91 -9.76,1.46 -19.19,4.87 -28.93,6.3 -6.44,0.92 -13.14,-0.16 -19.72,-0.19 -19.61,-0.21 -40.15,-17.06 -41.6,-34.98 -1.33,-16.43 -3.48,-33.04 -2.32,-49.36 4.23,-58.33 -17.2,-110.31 -39.49,-161.7 -10.4,-23.92 -25.63,-45.96 -40.13,-67.95 -34.26,-51.99 -81.8,-84.98 -143.42,-96.37 -42.11,-7.8 -84.98,-12.56 -126.43,-22.96 -99.23,-24.92 -196.4,-11.42 -292.91,12.91 -44.97,11.29 -85.31,33.77 -124.31,59.38 -66.67,43.78 -124.38,97.7 -179.17,154.9 -29.84,31.16 -51.97,68 -63.72,110.15 -13.34,47.51 -25.81,95.24 -39.02,142.83 -4.56,16.41 -4.26,32.39 0.27,48.64 8.09,29.15 20.78,55.08 44.41,75.36 24.95,21.32 48.76,44.03 72.51,66.74 61.95,59.17 123.48,118.83 185.51,177.96 9.49,9.02 20.46,16.65 31.23,24.16 16.62,11.65 34.87,18.04 55.67,16.46 49.31,-3.62 98.61,-7.05 147.92,-10.25 154.59,-9.9 307.38,-38.11 462.27,-45.25 16.42,-0.78 32.63,-4.98 49,-6.63 85.26,-8.55 170.44,-18.81 255.92,-24.48 59.15,-3.86 118.39,-4.36 176.91,-16.4 18.97,-3.92 39.16,-2.82 58.85,-2.57 19.1,0.31 34.57,27.33 25.3,44.36 -6.2,11.37 -13.07,23.17 -22.45,31.66 -19.45,17.76 -40.57,33.63 -61.34,49.81 -59.81,46.48 -119.22,93.55 -179.83,138.96 -39.52,29.61 -81.08,56.49 -121.3,85.2 -37.58,26.8 -75.32,53.43 -111.61,81.85 -38.85,30.53 -77.21,61.89 -113.49,95.3 -16.53,15.3 -28.7,35.87 -40.48,55.45 -8.94,14.82 -7.78,32.11 1.48,47.05 6.87,11.12 14.77,22.15 24.22,31.11 28.63,27.1 58.88,52.1 80.95,85.87 11.69,17.91 33.63,19.94 53.9,14.85 35.84,-9 66.89,-27.86 95.38,-50.66 33.41,-26.78 66.23,-54.38 98.83,-82.14 67.81,-57.6 134.96,-115.61 208.74,-165.95 48.87,-33.33 96.37,-70.21 138.27,-111.72 82.42,-81.69 177.6,-147.01 268.67,-217.36 185.09,-142.89 373.36,-281.71 560.25,-422.28 7.89,-5.93 15.63,-12.14 23.23,-18.45 116.43,-97.18 246.73,-176.19 360.59,-276.8 19.5,-17.25 44.28,-28.51 65.79,-43.69 32.26,-22.8 64.05,-46.27 95.63,-70.08 36.87,-27.71 72.54,-57.1 110.09,-83.77 107.36,-76.46 214.91,-152.68 323.32,-227.52 138.27,-95.62 275.85,-192.22 411.17,-291.97 60.91,-44.91 122.45,-88.78 187.52,-128.06 107.1,-64.64 211.7,-133.41 317.16,-200.75 44.45,-28.32 86.65,-60.56 132.83,-85.53 121.91,-65.96 235.18,-145.79 354.09,-216.54 31.12,-18.44 59.82,-40.89 89.65,-61.55 18.95,-13.11 37.64,-26.58 56.8,-39.27 90.52,-60.06 183.82,-115.62 275.3,-174.14 138.94,-88.91 272.78,-184.49 405.12,-282.43 15.62,-11.59 28.98,-26.53 42.19,-40.99 9.32,-10.2 11.26,-24.03 8.47,-37.22 -2.7,-12.8 -5.26,-26.62 -12.03,-37.42 -53.95,-86.39 -108.9,-172.31 -163.55,-258.29 -22.99,-36.14 -42.95,-74.69 -69.52,-107.99 -61.98,-77.71 -111.77,-162.72 -158.24,-250.11 -13.88,-26.07 -30.7,-50.6 -46.8,-75.49 -48.29,-74.64 -99.25,-147.7 -144.83,-223.97 -61.11,-102.23 -134.51,-194.66 -211.94,-285.58 -14.13,-0.59 -27.13,-1.89 -40.1,-1.5zm2685.94 -5165.4c74.64,0 163.69,0.27 252.68,-0.06 121.93,-0.44 243.85,-1.51 365.81,-1.99 46.13,-0.22 92.28,0.55 138.44,0.75 16.46,0.05 33.13,1.66 49.25,-0.67 59.07,-8.6 118.39,-8.38 177.65,-5.89 155.2,6.49 309.54,-7.92 464.1,-16.9 128.34,-7.5 256.62,-15.71 385.04,-21.8 95.7,-4.5 191.09,4.45 286.33,11.98 50.01,3.93 96.71,22.2 139.98,46.18 22.48,12.41 41.62,32.03 59.88,50.66 29.91,30.53 58.32,62.64 86.67,94.66 30.56,34.48 61.2,68.97 90.26,104.73 66.46,81.91 130.28,165.95 198.31,246.49 68.03,80.47 139.99,157.59 210.12,236.33 102.96,115.59 205.77,231.32 308.71,346.93 92.03,103.34 184.17,206.55 276.07,309.97 39.38,44.28 80.78,86.95 111.95,138.02 6.69,10.97 15.57,21.8 26,29.15 46.48,32.8 81.58,76.58 117.06,119.83 27.24,33.18 56.14,64.32 87.36,93.9 57.39,54.35 111.58,111.85 164.3,170.97 94.28,105.69 192.28,208.1 288.5,312.1 31.33,33.85 62.8,67.59 92.49,102.82 59.41,70.6 115.41,144.16 176.91,212.89 61.44,68.66 130.87,130.49 186.84,203.81 82.02,107.43 180.42,201.19 257.05,312.96 7.27,10.65 16.87,20.88 27.68,27.65 34.32,21.63 57.79,52.8 82.32,84.1 58.93,75.2 119.5,149 182.38,221.07 73.59,84.32 140.63,174.37 210.49,261.98 26.71,33.49 53.54,66.89 79.78,100.74 14.13,18.2 28.07,36.65 40.47,56 25.7,40.07 24.91,53.68 -2.83,88.44 -10.26,12.85 -20.16,26.21 -31.74,37.86 -144.08,144.77 -288.08,289.62 -432.9,433.7 -60.77,60.4 -124.62,117.66 -184.74,178.67 -62.43,63.36 -122.34,129.23 -182.71,194.57 -33.6,36.29 -66.29,73.18 -106.72,102.44 -13.14,9.54 -23.65,22.85 -35.21,34.57 -97.37,98.17 -194.65,196.4 -292.02,294.53 -6.98,6.99 -14.53,13.41 -22.08,19.77 -53.12,44.49 -101.3,94.02 -149.88,143.47 -92.23,93.8 -186.31,185.87 -280.1,278.21 -25.8,25.41 -53.47,48.9 -79.83,73.75 -35.92,33.9 -71.67,67.95 -107.02,102.4 -68.47,66.59 -136.64,133.58 -204.86,200.42 -4.68,4.64 -8.88,9.99 -14.08,13.85 -92.72,69.44 -162.36,163.44 -251.8,236.47 -17.67,14.49 -31.33,33.77 -47.61,50.11 -32.52,32.53 -65.53,64.7 -98.45,96.93 -21.21,20.71 -42.37,41.49 -63.94,61.92 -35.78,33.98 -71.84,67.76 -107.86,101.57 -9.64,9.02 -19.88,17.43 -29.25,26.66 -126.8,124.72 -253.15,249.96 -380.5,374.19 -61.25,59.78 -124.61,117.5 -186.75,176.37 -152.99,144.95 -305.6,290.21 -456.16,437.64 -96.49,94.5 -196.24,185.62 -293.64,279.17 -83.1,79.87 -164.79,161.34 -247.4,241.7 -28.24,27.54 -57.99,53.57 -86.17,81.21 -47.01,46.08 -92.56,93.67 -140.12,139.17 -130.97,125.27 -254.5,258.01 -388.65,380 -58.41,53.07 -112.95,110.45 -168.59,166.54 -81.24,81.82 -161.91,164.2 -242.83,246.35 -127.21,129.11 -255.36,257.21 -385.84,383.07 -90.1,86.89 -175.99,178.17 -263.9,267.36 -25.46,25.81 -50.28,52.4 -77.4,76.3 -113.74,100.37 -217.87,210.62 -327.25,315.4 -47.58,45.57 -96.04,90.34 -146.09,133.1 -50.25,42.98 -97.95,88.38 -141.76,137.61 -57.02,64.16 -118.14,124.06 -180.44,182.93 -47.88,45.19 -93.62,92.72 -140.43,139.21 -32.64,32.47 -64.8,65.54 -98.29,97.16 -129.59,122.12 -245.66,257.62 -374.5,380.44 -121.6,115.93 -234.76,240.38 -359.84,352.84 -78.41,70.5 -152.62,145.63 -227.87,219.44 -84.68,83.1 -166.73,168.85 -253.12,250.04 -52.8,49.59 -106.44,98.21 -158.85,148.29 -102.44,97.87 -206.47,194.05 -308.87,291.95 -83.32,79.64 -167.59,158.1 -255.22,233.09 -45.02,38.52 -86.78,80.78 -130.2,121.07 -132.8,123.37 -265.54,246.73 -398.72,369.68 -21.77,20.11 -44.94,38.75 -68.52,56.69 -18.31,13.88 -47.16,11.84 -64.49,-2.46 -5.03,-4.17 -9.95,-8.56 -14.79,-13.14 -93.4,-88.19 -186.64,-176.59 -280.26,-264.6 -50.46,-47.39 -102.35,-93.28 -152.18,-141.28 -128.15,-123.46 -255.16,-248.15 -383.39,-371.57 -49.84,-47.9 -102.77,-92.67 -152.66,-140.51 -116.5,-111.72 -237.27,-218.91 -350.38,-334.44 -108.32,-110.57 -218.85,-219.09 -335.22,-321.55 -42.01,-36.92 -82.05,-76.39 -120.02,-117.51 -85.06,-92.09 -177.05,-177.06 -266.29,-264.86 -25.71,-25.31 -52.18,-49.81 -80.64,-72.52 -33.27,-26.52 -62.81,-58.2 -91.84,-89.65 -60.48,-65.34 -123,-128.48 -191.86,-185.08 -7.63,-6.28 -15.55,-12.4 -22.37,-19.48 -84.77,-87.78 -176.92,-167.73 -264.79,-252.18 -114.03,-109.5 -224.8,-222.45 -340.98,-329.53 -82.35,-75.88 -161.42,-155.11 -243.96,-230.7 -29.07,-26.57 -60.71,-50.52 -89.3,-77.62 -119.47,-113.38 -238.24,-227.49 -357.3,-341.29 -26.18,-25.11 -52.76,-49.72 -78.81,-74.93 -44.91,-43.59 -89.6,-87.34 -134.21,-131.22 -21.15,-20.83 -40.2,-44.09 -63.04,-62.75 -66.62,-54.29 -125.28,-116.73 -186.06,-177.13 -46.77,-46.43 -95.99,-90.32 -143.37,-136.12 -78.15,-75.52 -155.39,-152.05 -233.53,-227.63 -111.26,-107.68 -220.47,-217.69 -335.31,-321.45 -95.44,-86.14 -186.25,-176.82 -279.23,-265.4 -35.79,-34.04 -69.63,-70.11 -105.06,-104.57 -118.05,-114.73 -238.41,-227.12 -360.47,-337.58 -19.5,-17.7 -37.28,-37.34 -56.31,-55.61 -142.55,-136.89 -285.31,-273.61 -427.87,-410.53 -118.77,-114.14 -236.69,-229.15 -356.24,-342.41 -98.03,-92.96 -198.01,-183.82 -296.82,-275.92 -28.98,-26.93 -57.22,-54.61 -85.34,-82.35 -42.17,-41.67 -83.47,-84.04 -129.17,-122.11 -37.89,-31.53 -70.94,-68.84 -106.33,-103.37 -89.44,-87.53 -183.45,-170.32 -269.2,-261.63 -4.51,-4.85 -8.23,-10.63 -13.41,-14.5 -105.48,-79.95 -191.56,-180.53 -287.67,-270.44 -72.17,-67.56 -140.99,-138.6 -217.4,-201.62 -17.74,-14.61 -33.39,-31.75 -50.03,-47.77 -71.19,-68.47 -142.16,-137.14 -213.66,-205.31 -21.45,-20.5 -41.81,-41.6 -61.32,-64.02 -34.5,-39.66 -73.08,-75.85 -110.98,-112.41 -42.72,-41.09 -86.23,-81.45 -130.07,-121.39 -70.56,-64.37 -138.8,-131.16 -207.04,-197.92 -87.11,-85.26 -173.58,-171.26 -263.69,-253.34 -99.85,-90.96 -190.68,-191.47 -296.08,-276.4 -10.24,-8.27 -19.56,-17.73 -28.74,-27.19 -124.06,-127.76 -256.22,-247.01 -387.85,-366.78 -19.46,-17.69 -37.59,-36.96 -55.24,-56.52 -15.01,-16.63 -15.01,-46.19 -0.93,-64.11 12.22,-15.51 24.83,-30.8 37.97,-45.54 83.24,-93.5 166.56,-186.89 250.07,-280.08 15.4,-17.17 31.01,-34.27 47.75,-50.06 55.41,-52.21 102.64,-111.22 147.4,-172.51 21.33,-29.23 42.79,-58.59 66.28,-86.11 126.35,-147.79 253.25,-295.13 380.24,-442.36 17.21,-19.97 36.51,-38.08 53.95,-57.82 34.92,-39.47 69.51,-79.26 103.81,-119.28 62.2,-72.54 124.44,-145.07 186.08,-218.06 95.63,-113.22 190.22,-227.38 286.45,-340.04 42.75,-50 88.77,-97.21 132.95,-146.04 35.38,-39.07 71.92,-77.27 104.91,-118.28 107.44,-133.51 220.9,-261.77 334.32,-390.13 111.27,-125.91 220.05,-254 329.9,-381.16 2.14,-2.48 3.98,-5.25 6.15,-7.71 97.95,-111.14 196.11,-222.12 293.86,-333.43 69.53,-79.14 138.67,-158.63 207.69,-238.22 103.6,-119.52 206.72,-239.42 310.53,-358.76 19.45,-22.34 41.27,-42.62 61.65,-64.15 23.59,-25.01 52.52,-39.39 86.31,-43.98 19.58,-2.66 39.29,-6 58.99,-6.14 85.59,-0.66 171.2,-1.22 256.8,0.3 29.67,0.5 58.87,-0.69 88.48,-2.32 72.33,-4.01 144.92,-3.65 217.37,-3.54 52.65,0.03 105.11,2.94 157.9,-2.48 39.16,-4.04 79.06,-0.58 118.61,-0.5 145.1,0.34 290.15,1.16 435.21,0.81 224.1,-0.58 448.22,-1.64 672.33,-3.07 250.53,-1.55 500.99,-4.23 751.51,-5.39 144.97,-0.67 289.99,1.83 434.98,0.89 177.89,-1.16 355.78,-4.82 533.67,-6.61 69.22,-0.67 138.44,1.72 207.63,1.14 154.81,-1.33 309.56,-3.86 464.37,-5.32 23.01,-0.25 46.05,1.61 69,3.79 19.72,1.83 37.45,19.91 39.66,38.24 0.38,3.27 0.97,6.53 1.13,9.82 6.39,131.55 18.75,262.63 28.62,393.94 4.92,65.59 2.57,131.78 2.43,197.67 -0.05,21.57 -13.04,37.08 -31.94,46.29 -14.73,7.19 -30.66,11.89 -45.93,18.08 -24.34,9.9 -49.59,18.19 -72.59,30.59 -53.4,28.76 -110.48,41.62 -170.3,46.34 -65.65,5.23 -131.16,13.28 -196.87,17.49 -52.57,3.36 -105.42,2.66 -158.13,4.01 -108.74,2.76 -217.47,6.68 -326.19,8.16 -52.65,0.69 -105.36,-3.69 -158.08,-4.56 -112.05,-1.96 -224.17,-2.69 -336.24,-4.93 -42.74,-0.83 -85.4,-4.56 -128.16,-6.83 -32.85,-1.75 -65.76,-4.61 -98.67,-4.61 -286.82,0 -573.66,0.07 -860.49,1.23 -75.72,0.34 -151.46,5.37 -227.24,6.69 -184.56,3.21 -369.16,5.45 -553.75,8.11 -16.49,0.25 -33.27,-1.33 -49.39,1.27 -104.87,16.71 -210.57,9.43 -315.9,11.89 -135.1,3.15 -270.09,7.38 -405.2,8.81 -49.89,0.53 -89.34,18.73 -122.4,54.04 -13.47,14.43 -25.89,29.86 -39.26,44.35 -35.82,38.7 -71.99,77.02 -107.83,115.63 -13.41,14.48 -27.02,28.9 -39.32,44.29 -96.81,121.04 -203.03,233.77 -307.02,348.5 -15.43,17.04 -32.87,32.22 -48.89,48.76 -20.61,21.23 -42.48,41.6 -60.65,64.79 -48.82,62.39 -101.55,121.16 -154.7,179.81 -46.42,51.22 -88.62,106.25 -134.4,158.08 -213.71,242.23 -428.17,483.76 -641.89,725.93 -30.52,34.57 -57.7,72.01 -87.74,107 -85.8,99.93 -169.74,201.46 -260.03,297.62 -51.76,55.14 -97.59,115.92 -145.86,174.36 -10.48,12.66 -18.85,27.23 -30.08,39.18 -128.52,137.06 -238.31,290.3 -367.78,426.54 -54.42,57.28 -107.27,116.04 -161.36,173.64 -26.72,28.45 -27.58,57.47 -0.81,87.14 4.41,4.89 8.9,9.73 13.56,14.41 95.07,95.77 191.07,190.48 290.34,282.02 101.72,93.78 199.46,191.84 299.51,287.41 42.91,41.02 87.98,79.7 130.82,120.69 88.06,84.23 175.79,168.8 262.79,254.09 225.91,221.51 458.81,435.72 681.16,660.84 80.99,82.07 166.89,159.29 249.99,239.26 42.7,41.12 83.74,84.04 126.43,125.11 45.08,43.44 94.44,82.85 136.34,129.09 117.56,129.68 252.02,241.86 374.33,366.58 48.34,49.23 102.77,92.64 142.48,150.2 5.56,8.02 13.2,14.73 20.43,21.42 72.73,66.98 145.19,134.32 218.53,200.6 97.67,88.39 199.08,172.46 288.52,269.83 44.49,48.48 93.22,93.53 143.56,135.92 75.84,63.77 147.3,132.05 218.16,200.99 82.63,80.48 169.44,156.63 248.23,241.06 20.18,21.63 42.97,40.74 64.18,61.45 21.26,20.64 42.81,40.99 62.83,62.73 49.17,53.45 98.64,106.32 159.12,147.59 13.5,9.19 25.2,21.18 37.06,32.61 71.29,68.49 141.97,137.63 213.75,205.64 38.24,36.26 78.51,70.4 117.47,105.91 114.44,104.34 223.81,213.94 333.77,322.87 67.83,67.29 136.14,133.99 203.69,201.52 32.64,32.61 62.89,67.61 96.14,99.56 42.67,41.09 87.19,80.31 131.08,120.12 21.99,20 46.65,37.48 66.04,59.6 67.73,77.16 150.19,138.12 224.64,207.86 7.19,6.73 15.62,12.19 22.42,19.32 145.88,152.65 307.85,288.33 458.7,435.72 94.31,92.04 190.15,182.6 285.87,273.2 31.06,29.34 64.88,55.91 95.98,85.25 122.15,115.24 246.98,227.55 366.03,346.19 156.45,155.79 314.96,309.51 479.75,456.71 78.6,70.18 153.24,144.93 227.71,219.57 142.01,142.34 285.21,283.4 431.19,421.57 95.77,90.61 192.73,179.92 288.82,270.15 122.49,115.04 242.23,233 357.08,355.8 8.99,9.6 17.78,19.51 27.73,28.02 19.02,16.18 55.78,16.63 73.72,0.61 19.7,-17.55 38.78,-35.81 57.47,-54.44 98.04,-97.58 195.11,-196.22 294,-292.95 122.51,-119.79 246.27,-238.3 369.96,-356.88 28.51,-27.35 56.3,-55.09 83.15,-84.32 42.25,-45.93 88.57,-88.38 135.28,-130 51.66,-46.08 100.81,-94.37 147.76,-145.27 51.36,-55.58 104.07,-110.12 162.39,-158.9 35.38,-29.48 69.25,-60.37 98.29,-97.03 26.41,-33.44 59.01,-62 89.27,-92.32 23.26,-23.25 48.1,-44.99 70.63,-68.91 79.19,-84.09 167.11,-158.54 254.97,-233.26 32.53,-27.6 61.95,-58.85 92.67,-88.55 4.74,-4.56 8.35,-10.45 13.47,-14.46 73.23,-57.28 128.29,-132.36 194.11,-196.79 80.06,-78.35 162.83,-153.84 244.41,-230.58 14.38,-13.53 29.93,-25.97 42.75,-40.77 84.46,-97.18 175.42,-187.75 272.66,-272.09 59.73,-51.76 118.83,-104.28 177.95,-156.82 17.23,-15.3 34.9,-30.48 49.98,-47.77 90.96,-104.75 193.3,-198.12 291.03,-296.12 34.9,-34.93 69.52,-70.19 105.04,-104.51 30.77,-29.76 62.69,-58.33 94.02,-87.55 33.58,-31.36 70.74,-58.93 96.19,-98.78 10.31,-16.18 26.91,-28.78 41.98,-41.55 100.5,-85.49 193.94,-178.44 286.88,-271.92 151,-151.8 302.29,-303.39 453.1,-455.33 71.96,-72.56 143.88,-144.97 221.21,-211.89 17.3,-15.07 31.57,-33.58 47.21,-50.52 13.38,-14.44 25.74,-30.04 40.23,-43.28 102.26,-93.2 193.25,-197.84 295.18,-291.15 82.66,-75.66 162.02,-154.63 242.55,-232.48 44.86,-43.39 97.65,-77.93 142.57,-121.79 58.88,-57.6 121.01,-111.89 180.39,-168.92 40.4,-38.79 78.4,-79.99 117.61,-120.06 13.8,-14.13 27.74,-28.1 42.01,-41.82 33.16,-32.06 66.79,-63.69 99.7,-95.91 37.71,-36.88 76.51,-72.44 115.31,-108.07 63.08,-57.79 120.64,-121.57 180.37,-182.9 32.16,-32.98 62.19,-68.33 96.45,-98.94 66.41,-59.24 129.1,-122.04 191.56,-185.4 92.48,-93.78 189.77,-182.91 284.92,-274.14 19.03,-18.22 39.1,-35.6 56.34,-55.39 86.55,-99.59 183.85,-187.81 281.63,-276.11 114.87,-103.7 227.46,-210.19 333.82,-322.98 72.26,-76.55 147.12,-150.62 220.45,-226.12 25.23,-25.89 49.83,-52.4 74.26,-79.06 82.3,-90.13 173.06,-171.59 260.56,-256.44 137.22,-132.99 271.65,-268.91 405.55,-405.28 48.45,-49.3 94.99,-100.3 147.17,-145.87 64.61,-56.39 124.92,-117.29 184.12,-179.29 9.08,-9.54 18.36,-18.94 26.97,-28.88 15.29,-17.75 20.24,-46.96 8.05,-64.63 -27.99,-40.49 -49.17,-85.59 -85.79,-120.3 -57.43,-54.51 -106.52,-116.89 -160.34,-174.58 -76.52,-82.02 -148.36,-167.8 -221.62,-252.54 -92.64,-107.21 -185.29,-214.46 -277.62,-321.93 -103.04,-119.83 -205.94,-239.54 -316.11,-353.17 -80.15,-82.66 -152.49,-172.95 -228.23,-259.9 -10.81,-12.45 -20.66,-25.69 -31.75,-37.86 -95.41,-104.65 -193.19,-207.16 -285.92,-314.12 -120.79,-139.38 -251.12,-270.18 -364.82,-416.09 -68.74,-88.19 -147.87,-168.27 -222.72,-251.6 -63.89,-71.05 -128.29,-141.54 -192.47,-212.28 -6.69,-7.33 -13.22,-14.71 -20.05,-21.85 -84.1,-88.32 -165.87,-178.69 -240.71,-275.1 -15.81,-20.35 -36.08,-27.85 -60.56,-26.03 -111.9,8.24 -223.83,6.59 -335.95,3.72 -75.66,-1.97 -151.52,2.4 -227.3,3.56 -23.03,0.36 -46.18,0.33 -69.18,-0.97 -122.09,-7.05 -243.56,-1.46 -364.49,16.54 -9.73,1.46 -19.69,2.49 -29.53,2.63 -230.67,3.35 -461.37,6.61 -692.02,9.71 -52.73,0.69 -105.51,0.91 -158.25,0.91 -118.61,0.02 -237.21,1.35 -355.77,-0.89 -92.39,-1.74 -184.49,-0.53 -276.72,5.04 -62.47,3.79 -125.15,3.37 -187.77,4.01 -88.96,0.91 -177.99,1.3 -267,1.38 -131.83,0.14 -263.66,-0.25 -395.51,-0.19 -42.85,0 -85.66,0.97 -128.46,1.02 -102.18,0.14 -204.4,0.06 -306.57,-0.21 -9.79,-0.03 -19.61,-1.83 -29.42,-3.05 -15.02,-1.91 -32.09,-16.45 -34.55,-31.22 -8.05,-48.7 -17.48,-97.33 -14.22,-147.18 1.32,-19.72 0.89,-39.63 3.18,-59.23 5.7,-48.59 -15.43,-80 -56.85,-104.39 -39.55,-23.28 -75.77,-52.21 -113.11,-79.2 -48.56,-35.09 -72.96,-84.37 -78.65,-142.7 -2.88,-29.39 -3.43,-59.46 -0.89,-88.86 6.92,-80.36 66.51,-140.12 147.15,-148.52 32.71,-3.4 65.77,-4.87 98.7,-4.9 75.8,-0.08 151.62,1.75 227.46,1.83 79.09,0.05 158.18,-1.67 237.3,-1.52 214.32,0.44 428.61,1.69 642.91,2.1 49.38,0.09 98.83,-2.65 148.25,-2.53 65.93,0.11 131.86,-1.97 197.51,7.13 12.82,1.75 26.18,0.91 39.17,0.17 16.46,-0.92 32.89,-4.65 49.2,-4.21 161.54,4.37 322.73,-12.5 498.56,-7.02z"/>
   <path class="fil3" d="M10574.04 7376.88c-36.14,0 -72.31,-0.14 -108.45,0.11 -9.85,0.05 -19.91,0.3 -29.43,2.51 -5.63,1.35 -10.64,6.39 -15.43,10.37 -5.5,4.61 -3.68,20.78 3.06,27.05 43.42,40.35 90.43,75.96 141.87,105.41 11.29,6.48 24.26,10.13 36.68,14.39 17.25,5.95 33.32,1.46 45.02,-11.35 35.51,-38.76 66.37,-80.99 88.21,-129.22 3.27,-7.25 -5.36,-20.43 -14.33,-22.15 -9.62,-1.8 -19.29,-5.17 -28.9,-4.98 -39.41,0.83 -78.87,2.77 -118.31,4.23 0,1.21 0,2.46 0,3.62zm-5258.02 1957.66c9.51,-13.2 18.25,-27.24 25.25,-41.92 42.25,-89.03 80.99,-179.76 128.15,-266.52 51.76,-95.32 98.14,-193.52 156.46,-285.36 91.79,-144.58 189.5,-284.73 299.06,-416.57 27.27,-32.81 51.66,-67.97 76.52,-102.7 7.63,-10.65 11.92,-23.71 7.33,-37.28 -2.4,-7.14 -23.33,-12.92 -36.16,-9.43 -38.11,10.31 -75.91,21.68 -114.13,31.71 -31.73,8.29 -63.47,18.3 -95.83,22.07 -38.55,4.48 -68.2,21.35 -93.72,48.95 -29.06,31.42 -58.15,62.81 -88.32,93.14 -76.58,76.96 -154.34,152.75 -230.48,230.12 -39.24,39.87 -78.17,80.34 -113.44,123.61 -66.39,81.7 -130.78,164.99 -194.33,248.92 -17.61,23.2 -30.05,50.6 -43.13,76.99 -5.93,12.08 -4.51,26.83 4.42,37.39 25.38,30.09 49.44,62.03 78.51,88.16 58.63,52.82 120.2,102.35 180.69,153.01 4.98,4.24 10.79,7.92 16.85,10.16 5.94,2.23 12.69,2.37 19.08,3.45 5.89,-2.54 14.02,-3.4 17.22,-7.91zm5939.51 -1666.1c-8.71,24.76 -15.21,50.39 -20.8,76.11 -9.84,44.97 -18.11,90.27 -27.49,135.43 -1.99,9.59 -4.82,19.24 -8.84,28.12 -10.02,22.18 -25.42,38.77 -51.54,39.64 -39.53,1.37 -79.04,1.12 -118.56,2.79 -42.73,1.74 -85.68,2.74 -128.05,7.91 -111.03,13.58 -221.75,30.13 -332.9,43.59 -25.71,3.12 -52.56,0.38 -78.51,-2.8 -98.06,-12.17 -179.61,-61.83 -257.74,-117.72 -40.07,-28.7 -78.43,-59.95 -116.57,-91.2 -49.11,-40.38 -104.54,-68.34 -164.68,-87.67 -88.16,-28.26 -179.8,-39.45 -270.82,-52.71 -48.87,-7.08 -98.32,-10.86 -147.54,-14.41 -154.31,-11.34 -308.62,-20.32 -463.04,-0.64 -55.45,7.06 -111.29,11.04 -166.98,16.46 -98.29,9.57 -196.6,19.11 -294.89,28.7 -6.55,0.66 -13.13,1.49 -19.55,2.9 -96.24,21.66 -196.04,26.14 -289.9,59.47 -6.17,2.18 -12.69,3.71 -19.21,4.61 -104.7,14.57 -204.76,48.64 -307.06,73.47 -35.14,8.58 -70.62,16.38 -105.11,27.25 -75.3,23.67 -150.02,49.25 -225.08,73.77 -125.43,41.02 -246.26,93.2 -364.82,150.75 -111.58,54.16 -203.89,132.61 -281.99,227.98 -48.37,59.13 -83.47,126.22 -109.99,197.7 -9.92,26.66 -4.28,51.44 13.05,74.26 14.47,18.97 31.12,33.79 55.28,38.5 25.87,4.98 51.58,10.64 77.53,15.15 105.11,18.05 210.24,11.47 315.06,-2.35 61.97,-8.16 123.2,-22.62 185.29,-29.23 65.56,-6.95 131.38,-9.48 193.66,-34.32 9.02,-3.63 19.3,-3.99 29.04,-5.73 84.17,-14.98 168.5,-29.29 252.52,-45.1 71.1,-13.39 141.51,-30.78 212.85,-42.39 97.38,-15.9 193.09,-42.7 292.59,-44.94 16.32,-0.41 32.49,-5.2 48.82,-7.6 169.58,-24.56 339.92,-45.96 511.08,-50.25 151.05,-3.88 302.59,-14.19 453.89,1.58 101.52,10.56 203.34,18.35 304.95,28.15 16.23,1.58 32.03,7.25 47.98,11.15 60.73,14.72 120.87,32.8 182.33,43.39 88.13,15.27 170.04,50.71 256.13,72.07 107.97,48.64 220.52,87.28 321.59,150.57 8.33,5.23 17.71,8.79 26.16,13.83 44.53,26.19 87.14,23.53 128.99,-6.77 29.34,-21.24 59.46,-41.42 89.65,-61.39 19.22,-12.69 38.19,-26.6 59.1,-35.64 51.82,-22.35 97.64,-54.43 145.12,-83.91 22.37,-13.88 43.64,-30.12 67.29,-41.34 101.43,-48.12 195.56,-109.05 291.97,-165.96 65.18,-38.47 128.81,-79.61 192.84,-120.01 16.25,-10.26 23.84,-36.45 14.84,-52.52 -11.14,-19.99 -23.65,-39.38 -36.83,-58.1 -18.89,-26.91 -41.52,-51.49 -58.04,-79.64 -50.28,-85.7 -112.47,-162.14 -176.71,-237.3 -30.12,-35.3 -64.51,-64.96 -104.65,-91.29 -7.66,5.97 -19.08,10.26 -21.71,17.67zm-3742.73 3387.09c-26.3,0 -52.87,-2.35 -78.87,0.44 -104.59,11.34 -208.95,25.03 -313.58,36.34 -36.75,3.99 -69.79,18.03 -103.59,30.62 -2.94,1.1 -5.18,4.04 -8.03,5.61 -11.04,6.14 -14.04,24.11 -5.03,34.13 39.82,43.83 81.11,86.39 119.33,131.52 32.52,38.41 74.01,64.91 113.77,93.88 22.67,16.54 50.08,18.53 75.66,9.54 24.55,-8.54 49.08,-19.75 70.46,-34.41 122.15,-83.81 238.35,-175.54 351.41,-271.2 7.24,-6.14 13.14,-14.74 17.45,-23.28 2.54,-5.18 2.77,-13.31 0.49,-18.56 -2.18,-5.09 -9.02,-11.91 -13.49,-11.73 -32.77,1.5 -65.51,4.35 -98.24,7.25 -42.49,3.87 -84.98,8.16 -127.48,12.34 -0.11,-0.83 -0.19,-1.67 -0.27,-2.49zm228.11 -632.93c81.7,-9.91 163.58,-18.72 244.85,-31.38 91.05,-14.13 181.95,-29.98 272.07,-49.15 70.76,-15.04 140.38,-35.57 210.06,-55.14 25.19,-7.06 49.83,-17.09 73.62,-28.24 103.01,-48.29 189.26,-117.64 261.19,-206.05 59.52,-73.18 101.67,-152.91 110.54,-248.26 2.95,-31.67 -11.23,-57.96 -41.04,-71.05 -30.53,-13.44 -62.08,-19.83 -95.66,-21.1 -98.64,-3.82 -197.37,-7.54 -295.76,-14.98 -164.72,-12.56 -329.06,-6.14 -493.41,3.79 -36.09,2.21 -71.96,8.02 -108.02,11.31 -95.05,8.47 -190.15,16.49 -285.23,24.7 -170.46,14.69 -338.66,51.11 -510.34,54.37 -6.55,0.11 -13.17,1.19 -19.55,2.66 -93.17,21.93 -188.45,30.23 -282.76,44.55 -55.62,8.4 -111.09,14.13 -167.12,13.72 -49.69,-0.39 -98.21,5.52 -146.9,15.35 -48.26,9.7 -97.37,16.59 -146.46,20.68 -52.41,4.34 -105.22,2.97 -157.74,5.92 -118.37,6.59 -236.66,14.03 -354.89,22.02 -15.98,1.08 -31.91,6.61 -47.15,12.12 -3.62,1.32 -7.3,11.64 -5.86,16.37 5.94,19.61 21.73,32.19 36.42,45.36 81.13,72.45 156.16,150.72 227.04,233.37 57.76,67.36 121.65,129.25 187.47,189.16 51.88,47.26 110.87,81.98 172.45,113.62 2.8,1.44 6.36,1.38 9.4,2.46 7.22,2.63 20.58,-4.84 24.36,-12.48 13.58,-27.35 13.08,-57.44 17.6,-86.5 8.15,-52.45 21.85,-103.83 51.13,-148.08 67.39,-101.66 159.01,-173.59 274.25,-216.15 65.09,-23.98 131.65,-39.44 199.41,-53.92 59.6,-12.81 116.71,-14.71 175.74,-4.76 35.67,6.03 71.62,11.2 107.61,14.82 40.18,4.06 77.33,16.09 111.34,37.36 30.66,19.17 61.83,37.92 90.56,59.82 67.37,51.27 118.36,113.88 128.56,202.01 1.11,9.76 3.19,19.61 6.25,28.9 22.21,67.1 37.51,78.74 108.69,76.53 17.84,-1.08 37.67,-1.33 57.27,-3.72zm4036.56 -6673.73c9.07,74.99 31.58,148.28 29.53,224.71 23.53,163.05 46.48,326.19 79.81,487.67 6.64,32.22 10.89,64.93 16.09,97.45 2.6,16.26 2.85,33.17 7.66,48.7 18.73,60.14 25.63,122.45 36.14,184.17 9.9,58.41 18.91,117.26 33.43,174.64 29.18,114.96 60.57,229.28 83.16,345.88 6.19,32.16 17.37,63.55 28.51,94.46 11.72,32.66 35.21,56.78 68,67.43 150.17,48.8 297.9,105.19 450.74,145.71 18.89,5.03 37.39,12.05 55.53,19.45 70.11,28.61 141.04,55.47 209.65,87.35 70.84,32.94 134.99,22.21 194.86,-21.99 34.29,-25.36 65.9,-54.69 96.93,-84.15 35.78,-34.03 69.18,-70.59 104.42,-105.27 72.75,-71.7 138.92,-149.5 206.98,-225.58 28.51,-31.88 55.61,-65.04 83.72,-97.35 32.38,-37.28 64.71,-74.61 97.86,-111.22 66.26,-73.29 133.16,-145.99 199.56,-219.22 20.1,-22.15 42.89,-40.63 68.6,-55.95 100.22,-59.78 207.88,-99.44 323.48,-114.84 173.06,-23.03 346.48,-43.92 519.73,-65.79 16.35,-2.08 33.08,-2.91 48.85,-7.33 47.58,-13.45 96.89,-19.5 144.57,-30.78 106.31,-25.19 216.07,-25.35 321.96,-50.71 9.48,-2.27 19.67,-1.86 29.53,-2.32 99.59,-4.74 197.4,6.47 293.62,32.22 31.85,8.52 64.37,15.24 95.32,26.21 68.23,24.18 139.49,40.24 204.53,72.96 123.57,62.14 249.73,118.42 377.32,171.79 57.61,24.12 113.96,51.19 170.71,77.35 41.85,19.31 83.74,38.59 124.97,59.13 47.15,23.44 92.98,49.53 140.46,72.34 187.94,90.41 362.75,201.3 523.8,333.74 22.88,18.78 47.56,37.11 64.78,60.51 38.96,52.93 76.41,107.35 109.51,164.07 44.82,76.79 85.2,156.22 127.14,234.68 43.53,81.45 69.17,171.21 117.05,250.71 6.62,11.07 9.34,24.51 13.9,36.84 13.77,37.08 25.81,74.91 41.74,111.03 18.56,42.04 40.04,82.83 61.33,123.6 8.73,16.78 36.08,21.79 52.57,11.47 5.58,-3.45 11,-7.19 16.43,-10.91 95.19,-65.94 181.36,-142.73 262.93,-224.26 95.5,-95.46 187.89,-194 280.84,-291.95 22.63,-23.81 42.94,-49.94 62.22,-76.51 4.45,-6.14 3.82,-20.53 -0.39,-27.57 -10.04,-16.74 -22.82,-32.04 -35.89,-46.68 -113.97,-127.96 -228.9,-255.06 -342.2,-383.57 -100.24,-113.65 -199.13,-228.51 -298.05,-343.32 -38.72,-44.89 -77.22,-90.08 -113.44,-136.95 -24.34,-31.44 -50.36,-60.5 -79.81,-87.32 -109.71,-100.02 -211.92,-207.36 -307.74,-320.77 -87.14,-103.15 -173.42,-207.04 -260.34,-310.4 -36.06,-42.87 -72.56,-85.33 -109.26,-127.66 -69.11,-79.59 -138.17,-159.23 -207.96,-238.29 -69.72,-79.03 -143.4,-154.85 -209.79,-236.58 -74.91,-92.32 -164.38,-171.08 -238.27,-264.05 -10.01,-12.67 -24.45,-21.88 -36.89,-32.63 -60.04,-51.72 -118.63,-105.26 -166.73,-168.36 -52.16,-68.49 -116.35,-125.64 -172.62,-190.1 -6.46,-7.4 -14.1,-13.88 -21.45,-20.49 -17.81,-15.96 -38.45,-25.11 -62.75,-24.78 -42.87,0.61 -85.73,1.54 -128.6,1.74 -158.16,0.78 -316.42,1.44 -474.57,1.91 -131.72,0.41 -263.22,16.01 -395.13,7.94 -3.26,-0.22 -6.58,0.41 -9.86,0.5 -102.02,1.96 -204.01,4.04 -306.04,5.74 -62.56,1.03 -125.1,2.11 -187.69,1.88 -69.19,-0.24 -138.44,-2.63 -207.63,-2.85 -92.29,-0.27 -184.57,1.16 -276.87,1.02 -177.99,-0.24 -355.94,-1.79 -533.97,-1.51 -227.4,0.33 -454.77,1.72 -682.17,3.04 -168.06,1.03 -336.12,2.24 -504.17,4.45 -32.8,0.41 -65.59,5.07 -98.2,9.21 -13.99,1.75 -24.28,12.2 -26.63,25.81 -5.03,29.04 -12.31,58.69 -10.68,87.67 2.46,43.25 -0.99,85.73 -6.24,128.12 -4.45,35.9 -13.64,71.13 -19.11,106.95 -22.43,148.11 -70.13,287.55 -141.68,419.04 -10.91,20.16 -19.69,41.51 -29.91,63.38 7.71,25.36 19.18,49.89 22.26,75.39zm-5798.7 -882.93c290.01,1.5 580.01,3.8 870.01,4.07 131.83,0.13 263.63,-4.14 395.44,-5.84 184.51,-2.37 369.05,-4.34 553.56,-6.09 23,-0.21 46.07,1.52 69.08,2.94 76.49,4.7 84.29,9.62 83.79,87.72 -0.08,9.87 0.5,19.97 -1.24,29.62 -25.97,143.86 -11.61,289.46 -17.92,434.15 -2.02,46.02 1.72,92.04 11.64,137.55 5.56,25.53 6.11,52.22 8.24,78.43 2.41,29.59 4.95,58.94 15.15,87.34 27.83,77.46 55.26,155.03 89.58,229.91 8.18,17.92 17.21,36.04 29.17,51.5 25.92,33.46 33.08,71.81 30.64,111.86 -3.99,65.74 -8.22,131.64 -16.79,196.9 -23.58,179.6 -52.9,358.46 -73.01,538.44 -10.26,91.9 -36.72,180.8 -41.82,273.16 -38.29,170.52 -55.63,344.8 -92.85,515.51 -14.02,64.27 -28.16,128.56 -45.19,192.06 -24.76,92.18 -51.6,183.82 -78.79,275.33 -9.32,31.47 -23.42,61.53 -33.27,92.89 -8.49,27.32 -26.83,45.32 -50.2,58.4 -45.93,25.76 -91.95,51.55 -139.35,74.5 -109.48,53.1 -218.97,106.31 -329.91,156.25 -192.22,86.56 -385.25,171.46 -581.88,247.65 -24.41,9.43 -50.25,15.46 -75.82,21.48 -24.84,5.87 -44.03,-6.25 -53.05,-32.05 -7.58,-21.74 -17.01,-43.33 -20.94,-65.83 -12.99,-74.96 -36.61,-146.89 -57.44,-219.76 -17.16,-60.04 -28.75,-121.73 -41.09,-183.02 -5.33,-26.32 -13.04,-51.05 -28.43,-72.91 -7.9,-11.24 -19.66,-17.87 -33.32,-18.5 -13.11,-0.6 -26.58,-0.87 -39.38,1.46 -110.13,19.82 -221.4,35.13 -329.84,61.89 -124.47,30.69 -251.88,52.04 -371.1,102.12 -109.34,25.89 -211.72,72.18 -317.52,108.43 -68.84,23.56 -132.46,58.27 -196.45,92.26 -43.53,23.15 -86.68,47.12 -130.67,69.41 -14.46,7.32 -30.78,11.37 -46.65,15.27 -19.8,4.84 -39.6,2.66 -57.6,-7.06 -20.3,-10.95 -39.83,-23.31 -59.82,-34.79 -54.23,-31.14 -107.24,-64.24 -166.09,-86.97 -24.34,-9.4 -46.35,-24.73 -69.6,-37.06 -46.51,-24.63 -93.23,-48.86 -139.71,-73.56 -26.19,-13.9 -51.82,-28.78 -78.07,-42.53 -23.31,-12.2 -46.7,-24.45 -70.84,-34.82 -18.95,-8.1 -38.99,-6.57 -57.44,2.94 -17.54,9.01 -34.52,19.18 -51.55,29.17 -39.82,23.28 -79.86,46.11 -119.13,70.27 -33.6,20.72 -67.04,41.85 -99.08,64.8 -104.54,74.72 -207.72,151.22 -312.56,225.37 -137.14,97 -266.94,203.5 -400.76,304.8 -89.27,67.55 -175.77,138.54 -263.91,207.57 -20.74,16.26 -42.44,16.51 -63.52,-0.19 -95.41,-75.8 -192.8,-149.16 -279.31,-235.67 -69.87,-69.84 -140.27,-139.28 -213.23,-205.83 -60.81,-55.46 -123.72,-108.58 -183.07,-165.77 -82.97,-79.95 -168.75,-157.05 -251.97,-236.81 -76.05,-72.86 -150.97,-146.98 -225.15,-221.81 -67.19,-67.82 -134.15,-135.87 -205.52,-199.36 -17.84,-15.85 -29.76,-34.57 -35.41,-57.91 -4.03,-16.76 -3.62,-32.85 3.52,-48.17 6.89,-14.91 14.19,-29.84 23.25,-43.45 27.21,-41.03 52.35,-83.95 83.76,-121.57 88.6,-106.05 172.37,-216.25 267.87,-316.45 11.39,-11.91 23.12,-23.55 33.76,-36.07 49.04,-57.72 97.16,-116.24 146.68,-173.57 94.65,-109.61 187.19,-221.29 285.92,-327.18 103.38,-110.89 198.69,-228.45 297.85,-342.8 92.78,-107.08 187.02,-212.89 281,-318.94 124.45,-140.52 249.27,-280.72 373.89,-421.07 8.79,-9.84 16.54,-20.77 26.21,-29.61 73.18,-66.87 134.13,-145.05 201.25,-217.54 60.42,-65.15 117.02,-133.88 174.84,-201.4 38.54,-45.05 76.27,-90.83 114.26,-136.34 10.51,-12.61 22.29,-24.55 30.73,-38.47 34.45,-56.66 81.85,-103.07 121.37,-155.61 29.89,-39.74 67.42,-60.78 117.21,-62.5 92.17,-3.15 184.29,-10.35 276.4,-10.89 214.24,-1.3 428.45,1.07 642.63,0.61 207.63,-0.41 415.24,-2.82 622.86,-3.82 121.87,-0.58 243.79,-0.09 365.72,-0.09 0,-1.46 0,-2.9 0,-4.34z"/>
   <path class="fil4" d="M10082.23 2643.62c-10.84,-22.71 -29.48,-33.93 -53.76,-30.09 -7.74,1.19 -17.2,8.82 -20.66,16.03 -8.6,17.92 4.21,37.81 31.25,51.33 5.45,2.74 12.03,3.72 18.23,4.37 9.5,1.05 25.68,-13.25 27.24,-23.34 -0.65,-6.14 0.18,-13.02 -2.3,-18.3zm1764.52 278.73c0,-52.7 0.11,-105.41 -0.11,-158.13 -0.05,-23.01 -0.3,-46.02 -1.41,-68.97 -0.72,-15.33 -24.27,-25.39 -38.18,-17.56 -17.59,9.84 -31.77,22.87 -43.31,39.52 -37.83,54.72 -62.77,115.37 -82.61,178.37 -26.99,85.65 -36.78,173.9 -35.56,263.21 0.59,39.77 -1.24,78.99 -7.71,118.08 -1.64,9.76 -4.51,19.48 -4.79,29.26 -2.19,82.45 -10.7,164.26 -21.26,245.96 -1.22,9.4 2.18,19.35 3.5,29.04 1.03,7.63 16.07,15.24 23.37,11.67 8.79,-4.31 18.89,-7.33 25.78,-13.74 43.67,-40.66 82.42,-84.85 101.58,-143.22 19.5,-59.44 42.83,-117.7 46.56,-181.19 0.81,-12.97 2.49,-26.89 7.95,-38.42 18.86,-40.23 19.1,-83.08 20.37,-125.89 1.61,-55.97 3.07,-111.97 4.64,-167.97 0.39,0 0.78,0 1.19,-0.03zm-3578.16 439.54c-7.46,-85.17 -22.06,-168.91 -52.67,-249.94 -24.42,-64.57 -64.52,-113.49 -121.21,-150.6 -7.49,-4.92 -22.96,-2.18 -25.89,5.04 -4.93,12.05 -11.5,23.87 -13.99,36.48 -5.09,25.77 -8.96,51.87 -11.53,78.04 -14.58,147.47 -22.9,295.28 -17.62,443.52 1.41,39.27 5.09,78.87 12.23,117.51 8.35,45.21 20.07,89.96 33.16,134.06 16.92,56.95 40.1,111.51 77.04,158.82 7.77,10.02 18.91,17.73 29.43,25.14 12.55,8.82 37.16,1.58 42.36,-11.91 11.83,-30.7 23.84,-61.34 26.65,-94.58 1.64,-19.69 1.39,-39.91 6.12,-58.84 21.87,-87.28 18.35,-176.36 21.26,-269.56 -1.46,-51.41 -0.46,-107.54 -5.34,-163.16zm1022.06 1560.88c-70.73,14.82 -143.16,21.71 -212.05,44.78 -56.08,18.75 -111.78,38.68 -167.28,59.15 -15.25,5.63 -29.62,14.21 -43.3,23.11 -4.16,2.72 -5.62,10.97 -6.44,16.93 -1.09,7.81 3.75,12.44 11.85,13.01 29.43,2.13 58.99,7.2 88.25,5.7 111.58,-5.7 223.56,-2.66 334.95,-13.94 35.86,-3.61 72.32,-2.53 108.46,-2.66 95.38,-0.19 190.73,-0.27 285.26,-16.25 16.16,-2.74 32.65,-4.29 49.06,-4.65 98.58,-2.32 197.42,0.78 295.23,-16.03 6.31,-1.08 13.17,1.13 19.67,0.83 62.32,-2.85 125.19,-1.96 186.8,-10.09 58.85,-7.74 117.4,-13.88 176.68,-15.18 56.06,-1.22 111.26,-10.37 164.71,-27.8 4.82,-1.53 8.6,-9.04 11.04,-14.59 2.96,-6.69 -0.72,-12.86 -8.68,-14.5 -51.52,-10.56 -103.01,-21.45 -154.72,-30.8 -136.23,-24.64 -273.14,-41.07 -412.06,-35.9 -52.51,1.97 -105.13,0.34 -157.71,0.34 -191.06,-4.74 -381.69,-0.94 -569.71,38.55zm-680.32 430.47c0.85,6.46 1.05,13.1 2.77,19.35 34.72,127.4 84.7,248.72 144.71,366.26 52.33,102.49 108.75,202.89 154.67,308.64 24.83,57.22 51.41,113.72 78.84,169.72 18.92,38.53 45.63,72.13 75.11,103.24 6.62,6.99 15.3,13.93 24.23,16.22 8.38,2.13 18.75,-0.58 27.46,-3.56 8.4,-2.88 12.55,-18.36 9.24,-25.63 -2.69,-5.92 -4.37,-12.48 -7.97,-17.78 -40.68,-60.29 -69.91,-126.02 -98.53,-192.71 -38.88,-90.48 -78.96,-180.72 -131.45,-264.67 -8.65,-13.8 -13.46,-29.96 -20.45,-44.84 -57.31,-122.03 -114.68,-244.08 -172.21,-366.03 -5.64,-11.89 -11.17,-24.14 -19.02,-34.51 -11.73,-15.63 -24.95,-30.29 -38.74,-44.14 -3.6,-3.62 -12.56,-5.06 -17.6,-3.27 -4.73,1.67 -7.47,8.88 -11.06,13.7zm2551.98 15.73c-3.49,-5.25 -6.17,-11.34 -10.57,-15.65 -5.75,-5.67 -12.97,-5.26 -17.37,1.02 -9.3,13.31 -18.86,26.63 -26.27,41.04 -22.66,43.89 -42.76,89.1 -66.54,132.3 -73.15,132.68 -147.45,264.73 -221.61,396.81 -11.26,20.08 -23.99,39.29 -36.32,58.74 -51.22,80.53 -103.7,160.26 -153.48,241.64 -36.09,58.93 -69.39,119.58 -109.23,176.27 -7.33,10.45 -12.1,23.18 -15.68,35.54 -1.47,4.98 1.85,13.63 5.97,17.23 3.71,3.23 13.6,4.52 17,1.85 15.55,-12.05 31.5,-24.33 44.06,-39.29 61.53,-73.1 123,-146.21 178.18,-224.39 24.66,-34.9 52.05,-67.81 78.23,-101.61 32.28,-41.65 62.17,-84.45 86.93,-131.46 62.97,-119.53 109.5,-246.49 169.32,-367.36 2.91,-5.9 5.12,-12.24 6.75,-18.57 16.43,-64.12 42.87,-124.45 69.24,-184.81 2.46,-5.56 1,-12.83 1.39,-19.3zm906.78 1185.4c-19.74,0 -39.52,0.57 -59.2,-0.07 -62.53,-2.08 -125.14,-6.69 -187.27,5.47 -6.42,1.26 -13.17,1.79 -19.69,1.46 -121.98,-6.47 -243.33,11.42 -365.29,9.54 -95.44,-1.43 -191.04,3.65 -286.53,2.37 -108.74,-1.4 -217.28,3.43 -325.97,5.9 -43.06,0.96 -85.45,4.67 -127.53,12.88 -51.91,10.13 -104.34,12.89 -157.11,15.93 -131.53,7.63 -262.85,18.81 -394.33,28.46 -39.41,2.93 -78.81,6.71 -118.31,8.24 -72.37,2.8 -144.91,3.15 -216.45,17.59 -16.01,3.24 -32.82,4.2 -49.22,4.09 -72.97,-0.56 -144.08,12.86 -215.82,23.76 -107.38,16.35 -215.35,28.73 -323.04,43.11 -104.39,13.91 -208.76,28.38 -313.18,42.34 -127.35,17.06 -254.95,32.13 -381.97,51.22 -110.58,16.64 -222.94,22.85 -331.44,52.98 -12.61,3.51 -25.81,5.75 -38.88,6.57 -98.81,6.26 -194.52,32.97 -292.42,44.84 -104.76,12.67 -205.03,46.59 -309.06,62.92 -84.52,13.24 -167.87,33.97 -252.43,47.09 -107.63,16.73 -212.05,46.88 -317.89,71.08 -96.27,21.98 -192.27,45.18 -288.77,65.98 -28.67,6.19 -58.65,7.13 -88.13,8.29 -13.9,0.56 -23.65,-10.31 -30.42,-22.03 -3.26,-5.61 -5.64,-12.05 -6.97,-18.43 -15.21,-70.99 -25.53,-142.53 -28.07,-215.31 -1.27,-34.81 14.41,-56.61 44.54,-68.97 45.69,-18.76 91.51,-37.4 138.11,-53.68 77.74,-27.16 153.51,-58.85 228.57,-92.61 59.98,-27.05 120.82,-52.24 181.58,-77.46 60.92,-25.34 120.18,-53.9 177.73,-86.21 63.24,-35.5 128.68,-66.55 194.86,-96.34 87.06,-39.22 172.07,-82.67 253.01,-133.74 31.66,-19.93 54.81,-44.63 69.3,-80.42 17.37,-42.95 32.44,-85.6 39.93,-131.75 8.96,-55.12 23.29,-109.4 35.82,-163.91 26.46,-115.56 53.56,-230.99 79.89,-346.59 18.28,-80.28 36.28,-160.67 53.32,-241.2 25.14,-119.28 49.64,-238.68 73.61,-358.21 5.17,-25.75 6.9,-52.16 9.99,-78.32 5.45,-45.77 7.89,-92.12 16.7,-137.25 20.19,-103.57 31.94,-208.26 46.33,-312.61 5.36,-38.96 16.09,-77.24 26.02,-115.4 2.21,-8.57 10.1,-19.05 17.79,-21.71 5.11,-1.78 15.73,7.57 21.67,14.02 6.55,7.1 11.51,16.14 15.63,25.05 36.12,77.57 77.22,153.1 97.54,237.2 3.07,12.71 6.89,25.59 12.44,37.42 49.15,104.24 97.85,208.76 165.93,302.7 21.27,29.28 40.4,60.09 61.03,89.82 11.23,16.18 22.48,32.49 35.63,47.07 83.57,92.56 109.45,102.07 233.31,89.07 58.96,-6.19 117.92,-12.74 177.02,-17.58 36.03,-2.93 72.35,-2.97 108.54,-4.18 16.45,-0.56 33.11,0.75 49.34,-1.44 98.11,-13.1 196.7,-14.49 295.48,-16.14 72.31,-1.25 144.93,-5.15 216.72,-13.55 154.15,-18.06 308.9,-19.19 463.6,-24.34 26.36,-0.88 52.77,-0.27 79.04,-2.63 95.4,-8.54 190.92,-2.48 286.36,-3.9 82.24,-1.24 164.35,4.26 246.71,0.59 36.42,-1.64 71.76,-8.2 107.51,-12.72 71.57,-9.02 129.01,-44.92 180.12,-94.47 86.12,-83.35 155.61,-179.12 212.7,-283.68 58.29,-106.83 113.32,-215.56 157.84,-329.12 67.34,-171.98 124.4,-347.07 157.55,-529.31 4.7,-25.85 11.5,-51.32 17.65,-76.93 2.56,-10.78 19.15,-24.05 28.64,-23.64 10.15,0.41 27.02,12.55 30.03,22.7 4.68,15.71 10.87,31.48 12.18,47.54 2.94,36.06 4.64,72.34 4.29,108.54 -0.78,79.08 1.13,157.71 13.85,236.25 11.12,68.17 14.66,137.55 23.84,206.1 19.69,147.02 48.12,292.54 80.45,437.25 19.36,86.68 42.2,172.59 65.69,258.29 32.19,117.59 58.38,236.45 82.26,355.92 3.21,16.12 5.58,32.63 10.97,48.04 12.51,35.78 32.83,62.27 73.67,71.89 67.28,15.79 130.15,45.72 195.08,68.95 155.18,55.58 313.82,99.64 470.59,149.72 47.04,15.02 93.58,31.53 140.14,48.04 9.12,3.23 17.3,9.35 25.65,14.58 17.17,10.7 25.42,34.7 15.44,51.44 -21.94,36.58 -42.87,74.11 -68.55,107.93 -63.81,83.8 -133.3,162.56 -206.94,238.24 -80.22,82.45 -153.29,171.91 -229.92,257.86 -15.21,17.06 -32.41,32.41 -49.09,48.14 -20.08,19 -44.35,27.88 -71.81,28.19 -29.67,0.32 -59.33,0.21 -89,0.85 -39.55,0.78 -79,2.1 -118.55,3.21 0,0.36 0,0.78 0.02,1.13zm-2380.88 -3898.99c2.41,-27.1 -14.41,-44.27 -35.29,-41.37 -44.99,6.31 -79.03,28.43 -98.37,70.52 -2.65,5.78 -4.25,12.56 -4.36,18.95 -0.11,13.1 1.6,26.07 12.55,35.56 10.7,9.32 34.3,11.72 45.91,3.93 27.18,-18.25 52.79,-38.58 71.74,-65.6 5.27,-7.54 6.46,-17.97 7.81,-21.98zm179.73 1751.16c0,30.06 -1.83,49.72 0.67,68.86 1.58,12.05 8.49,23.87 14.98,34.63 6.58,11.04 25.58,12.25 33.74,3.5 4.37,-4.66 10.04,-9.02 12.39,-14.66 20.29,-49.77 19.22,-100.93 8.02,-152.34 -1.27,-5.95 -5.81,-11.72 -10.12,-16.32 -6.55,-6.95 -13.58,-13.71 -24.78,-12.59 -10.79,1.09 -28.05,12.81 -29.04,22.13 -2.74,25.69 -4.59,51.52 -5.87,66.79zm9.65 -905.04c-55.7,5.58 -111.34,11.23 -167.01,16.73 -46.77,4.64 -89.48,21.01 -129.67,44.77 -2.83,1.67 -6.84,2.75 -8.17,5.2 -2.76,5.31 -6.57,11.81 -5.52,16.87 1.05,4.9 7.55,12.17 11.83,12.34 59.26,2.24 118.23,-1.64 177.38,-5.34 58.71,-3.71 118.14,4.07 177.26,6.71 3.26,0.17 6.59,-0.49 9.85,-0.38 29.61,1.14 59.43,0.64 88.82,3.88 65.51,7.22 130.79,16.35 196.13,24.49 6.44,0.81 14.3,2.44 19.22,-0.35 7.99,-4.56 15.55,-11.53 20.27,-19.3 2.48,-4.04 0.66,-13.85 -2.83,-17.83 -19.99,-22.94 -45.21,-36.62 -75.08,-44.42 -102.47,-26.8 -206.03,-43.08 -312.5,-43.35zm535.44 -221.84c-3.48,0.38 12.69,-1.36 28.84,-3.4 7.97,-1.05 12.25,-6.01 11.47,-13.83 -0.55,-6.14 -0.43,-14.74 -4.17,-17.73 -10.01,-7.89 -21.37,-17.34 -33.19,-18.97 -52.16,-7.25 -104.51,-14.74 -157.02,-16.92 -79.01,-3.24 -157.58,-8.79 -236.36,-15.79 -190.79,-16.93 -381.78,-13.8 -571.48,16.62 -35.7,5.72 -71.07,14.24 -106.11,23.18 -15.73,3.98 -31.47,10.53 -45.16,19.1 -6.5,4.1 -10.18,15.4 -11.42,23.98 -0.56,3.68 7.74,11.51 13.08,12.69 15.89,3.48 32.57,7.74 48.42,6.14 55.47,-5.61 110.81,-13.6 166.23,-20.63 26.02,-3.29 51.99,-7.44 78.14,-9.27 29.54,-2.07 59.26,-1.97 88.88,-2.74 141.6,-3.61 283.05,-2.91 424.7,0.56 88.96,2.15 177.6,2.15 265.57,16.84 6.44,1.08 13.16,0.17 39.57,0.17zm-432.43 -496.37c39.98,-7.12 85.71,-13.08 130.31,-23.88 28.31,-6.83 57.33,-14.12 81.91,-32.82 23.14,-17.61 33.43,-40.01 32.16,-68.11 -0.89,-20.16 -7.68,-38.3 -21.76,-53.68 -20.22,-22.12 -43.09,-40.6 -70.03,-53.71 -24.95,-12.11 -42.03,-31.96 -52.57,-56.71 -8.99,-20.99 -17.94,-42.73 -21.76,-64.99 -9,-51.97 -13.39,-104.39 -10.54,-157.38 2.1,-39.38 4.37,-79.09 1.99,-118.39 -3.21,-52.79 -4.76,-104.98 9.35,-156.55 0.78,-2.94 0.36,-7.14 -1.21,-9.63 -3.3,-5.14 -7.06,-10.66 -11.98,-14.01 -6.63,-4.54 -12.28,-1.72 -16.78,4.45 -14.2,19.38 -18.25,42.09 -21.24,64.9 -6.72,52.24 -11.94,104.68 -19.08,156.86 -11.09,81.55 -21.98,162.99 -17.53,245.7 2.51,46.91 -9.32,91.51 -27.19,134.43 -6.3,15.12 -15.09,29.21 -22.1,44.06 -12.63,26.73 -25.18,53.53 -36.91,80.67 -7.28,16.92 1.49,42.72 15.95,53.12 22.04,15.9 46.55,24.12 79.01,25.67zm-1400.9 1149.01c0.19,0 0.39,0 0.56,0 0,144.83 -1.32,289.65 0.41,434.46 1.46,122.67 25.17,241.94 64.51,358.04 5.23,15.43 13.34,29.98 20.86,44.54 2.93,5.7 7.16,11.51 12.31,15.04 4.12,2.86 10.59,3.07 15.98,2.91 1.46,-0.03 4.48,-5.79 4.01,-8.38 -7.89,-41.92 -13.88,-84.37 -24.92,-125.43 -32.87,-122.35 -25.68,-248.32 -36.37,-372.65 6.25,-164.26 -3.06,-329 14.15,-493 1.36,-13.02 1.76,-26.46 0.39,-39.47 -12.11,-117.78 -11.56,-236.75 -31.61,-353.73 -8.32,-48.47 -14.19,-98.53 -31.25,-144.1 -22.95,-61.3 -55.45,-119.08 -84.71,-177.96 -1.85,-3.68 -11.2,-5.79 -16.68,-5.14 -8.98,1.02 -17.03,14.88 -14.49,22.14 3.26,9.27 5.45,19.17 10.21,27.6 22.82,40.57 38.11,83.49 46.6,129.31 4.78,25.81 11.96,51.36 20.26,76.3 13.66,41.13 18.09,83.61 20.63,126.24 8.41,141.19 16.04,282.44 9.27,424 -0.94,19.73 -0.14,39.53 -0.14,59.26zm335.79 -2058.92c13.16,0 26.35,0 39.49,-0.03 96.68,-0.11 189.57,19.05 279.61,53.78 28.46,10.98 53.32,26.63 70.38,51.66 3.68,5.45 0.02,20.05 -5.17,26.33 -5.47,6.61 -16.7,11 -25.78,11.72 -45.97,3.62 -92.01,6.55 -138.09,8.19 -66.23,2.32 -130.6,14.35 -194.88,30.09 -46.21,11.29 -86.09,32.19 -120.74,63.83 -7.11,6.52 -13.28,14.88 -17.37,23.56 -2.3,4.86 -1.43,13.55 1.67,17.97 2.95,4.26 11.99,8.6 16,6.98 14.96,-6.03 28.76,-14.83 43.34,-22.02 23.5,-11.59 46.7,-24.12 71.04,-33.63 22.79,-8.96 44.89,-7.08 62.97,13.26 13.03,14.68 26.46,29.58 41.96,41.48 21.74,16.67 46.45,22.34 74.5,14.77 26.52,-7.17 50.82,-17.09 63.4,-42.57 19.86,-40.12 54.4,-52.92 95.33,-61 55.53,-10.98 109.67,-19.14 165.26,0.11 22.45,7.76 46.37,2.05 65.54,-12.92 41.54,-32.38 82.77,-65.2 122.94,-99.23 9.49,-8.04 15.8,-20.87 21.05,-32.62 12.72,-28.35 -0.89,-55.43 -29.56,-60.55 -16.23,-2.87 -32.74,-7.51 -48.87,-6.68 -63.85,3.28 -122.23,-24.76 -184.35,-30.64 -80.86,-28.18 -165.12,-43.61 -247.4,-66.18 -77.87,-21.37 -156.19,-23.39 -235.03,-21.01 -76.5,2.29 -138.25,38.57 -188.33,95.23 -4.03,4.57 -5.12,11.84 -7.27,17.96 -2.83,7.99 4.64,21.98 13.02,23.58 9.46,1.8 19.88,5.75 28.57,3.54 54.88,-14.02 110.52,-16.79 166.73,-14.96zm2047.03 -199.07c-33.41,3.46 -73.99,2.64 -111.75,12.59 -79.43,20.99 -158.21,45.27 -235.73,72.48 -105.28,36.97 -207.18,83.71 -317.49,105.47 -6.39,1.24 -13.74,2.18 -18.7,5.87 -36.97,27.68 -80.59,25.71 -123.2,28.59 -6.52,0.41 -13.04,1.61 -19.58,2.49 -20.35,2.68 -33.51,28.45 -21.23,44.46 13.84,18.14 27.62,37.72 45.57,51.06 56.69,42 117.31,59.57 183.12,17.97 11.07,-6.97 23.17,-12.26 35.08,-17.67 13.08,-5.98 28.49,1.32 31.07,14.95 2.4,12.75 1.21,26.71 6,38.34 2.99,7.35 13.88,15.68 21.55,15.98 12.44,0.49 25.06,-5.75 37.75,-8.19 12.77,-2.48 26.22,-7 38.5,-5.09 46.15,7.2 89.85,21.32 124.66,54.81 9.49,9.1 18.78,18.5 28.91,26.94 38.55,32.25 62.3,34.4 107.21,6.36 22.18,-13.83 42.78,-30.55 62.56,-47.77 33.63,-29.36 71.11,-31.96 111.09,-18.63 23.26,7.78 39.26,23.03 42.76,49.13 1.69,12.87 4.12,25.87 8.6,37.95 3.82,10.37 14.95,12.5 24.7,11.89 20.49,-1.28 37.02,-18.11 39.66,-37.5 3.73,-27.19 -3.85,-52.17 -14.33,-76.53 -2.51,-5.84 -6.72,-11.77 -11.78,-15.57 -26.33,-19.91 -53.02,-39.79 -86.87,-44.77 -35.73,-5.29 -71.53,-10.65 -107.48,-13.5 -39.42,-3.1 -79.06,-2.69 -118.51,-4.98 -36.14,-2.13 -72.24,-5.56 -108.21,-9.02 -12.86,-1.24 -28.81,-14.79 -27.13,-23.98 1.69,-8.96 5.5,-20.1 12.2,-24.94 15.79,-11.4 32.93,-22.26 51.14,-28.6 55.88,-19.5 111.81,-39.57 169.07,-54.07 57.31,-14.49 115.66,-26.41 175.63,-24.47 30.67,1 58.08,8.08 81.48,29.51 19.38,17.78 40.26,34.01 61.28,49.87 31.44,23.67 67.34,25.21 103.54,15.64 6.87,-1.79 14.63,-14.87 14.93,-23 0.47,-12.59 -2.63,-26.86 -8.73,-37.86 -14.38,-25.81 -30.54,-50.77 -47.59,-74.88 -40.16,-56.78 -94.2,-90.83 -164.63,-96.22 -22.99,-1.75 -46,-3.15 -75.09,-5.15zm-1640.04 -619.37c106.83,36.81 212.72,73.04 318.43,109.79 71.55,24.86 142.76,50.31 218.55,60.43 22.49,3.02 44.28,12.23 65.94,19.86 18.16,6.39 20.8,36.86 4.87,49.42 -42.01,32.95 -89.32,56.25 -140.16,70.99 -66.23,19.27 -132.27,37.94 -202.24,43.7 -52.1,4.31 -103.65,16.25 -156.63,15.57 -6.28,-0.09 -15.49,11.62 -18.54,19.66 -6.19,16.6 -1.18,33.41 11.15,45.3 11.73,11.26 25.39,21.38 39.9,28.53 98.76,48.93 202.3,78.99 313.55,77.44 23.1,-0.3 46.22,1.35 69.17,0.09 192.14,-10.84 368.58,-66.91 523.64,-183.53 13.15,-9.86 27.41,-19.15 37.91,-31.46 37.95,-44.44 37.4,-65.04 2.8,-102.94 -15.46,-16.86 -34.3,-30.66 -51.85,-45.56 -32.58,-27.76 -65.51,-55.09 -98,-82.99 -75.06,-64.64 -105.14,-148.9 -106.46,-245.55 -0.22,-20.9 15.81,-36.97 37.77,-36.97 19.7,0.03 40.1,-1.49 58.96,2.88 112.35,25.94 227.73,35.26 339.87,62.44 25.3,6.14 52.27,5.84 78.52,6.97 52.71,2.35 105.16,4.42 156.94,17.14 28.59,7 58.6,9.05 88.14,11.4 120.21,9.53 230.47,53.02 339.92,99 22.63,9.51 34.68,27.83 40.6,52.19 17.23,70.7 25.5,142.31 28.57,214.95 3.98,95.44 7.44,191.07 26.3,285.24 2.56,12.8 3.37,26.21 3.2,39.31 -0.77,69.72 9.22,137.75 26.92,205.14 6.58,25.23 7.97,51.93 10.84,78.07 4.31,39.23 5.66,78.95 18.39,116.89 2.07,6.19 3.95,12.85 3.93,19.29 -0.28,86.54 25.25,169.08 39.18,253.37 13.96,84.48 30.09,168.59 46.29,252.66 4.34,22.53 11.67,44.6 19.08,66.39 7.17,21.08 41.37,28.62 58.58,13.67 22.59,-19.62 41.14,-41.99 52.9,-70.11 12.72,-30.39 26.3,-60.51 41.39,-89.74 9.02,-17.36 20.27,-34.09 33.08,-48.87 34.7,-39.98 96.02,-36.69 128.42,6.61 5.56,7.39 8.38,17.89 9.49,27.32 3.2,27.97 -7.38,52.28 -25.89,72.16 -17.92,19.29 -36.83,38.04 -57.55,54.18 -42.7,33.21 -72.51,76.02 -97.65,122.89 -13.93,26.03 -28.1,51.9 -43.67,80.56 -12.74,0 -25.55,-0.88 -38.15,0.25 -13.45,1.18 -25.5,15.1 -24.04,26.41 1.67,12.96 4.53,25.77 6,38.77 4.02,35.92 10.37,71.81 10.84,107.8 1.46,112.05 2.22,224.17 0.09,336.19 -1,55.84 -11.4,111.47 -13.03,167.34 -6.22,209.45 -52.54,410.93 -115.67,609.53 -35.04,110.07 -78.7,216.55 -127.24,321.09 -23.58,50.75 -50.66,99.48 -85.15,144.17 -22.01,28.51 -39.35,60.67 -59.7,90.61 -7.28,10.65 -17.09,19.59 -25.98,29.15 -4.73,5.12 -24.49,1.08 -25.85,-5.27 -2.63,-12.78 -6.69,-25.61 -6.87,-38.47 -0.83,-79.1 -0.74,-158.17 -0.99,-237.25 -0.09,-19.78 0.36,-39.59 -0.53,-59.29 -3.62,-82.47 -1.94,-164.33 14.98,-245.76 6.64,-31.91 5.2,-65.57 6.72,-98.49 2.79,-62.43 4.45,-124.91 7.89,-187.32 1.63,-29.53 1.69,-60.4 10.53,-88.11 18.59,-58.15 16.57,-117.17 14.74,-176.27 -2.9,-92.93 7.19,-184.04 28.54,-274.44 16.75,-70.59 35.14,-140.57 63.05,-207.58 8.11,-19.4 7.8,-38.49 5.55,-57.98 -0.56,-4.93 -6.91,-11.51 -11.85,-12.92 -5.01,-1.43 -12.53,1.19 -17.23,4.48 -16.6,11.73 -27.1,27.96 -33.68,47.34 -16.9,49.83 -32,100.56 -52.66,148.87 -39.31,92.06 -56.63,188.74 -69.83,287 -19.74,147.31 -19.21,295.74 -26.65,443.74 -1.63,32.85 -4.56,65.59 -6.95,98.43 -1.16,16.42 -3.4,32.82 -3.48,49.25 -0.83,138.41 -1.99,276.79 -1.51,415.21 0.38,118.8 -7.15,237.11 -18.89,355.19 -1.61,16.2 -6.31,32.14 -10.27,48.03 -2.46,9.95 -20.38,22.93 -30.22,21.8 -45.72,-5.28 -92.31,-7.05 -136.94,-17.28 -106.2,-24.47 -214.83,-32.85 -321.37,-53.57 -120.55,-23.42 -242.75,-18.08 -364.08,-27.13 -36,-2.68 -72.15,-1.54 -108.23,-6.97 -22.54,-3.42 -46.16,-3.18 -68.98,-1.13 -111.74,9.99 -223.59,11.09 -335.7,9.65 -95.46,-1.25 -190.45,6.6 -285.7,16.76 -109.26,11.64 -212.05,46.51 -317.52,71.57 -57.66,13.68 -114.85,29.31 -169.88,52.12 -21.13,8.8 -43.89,14.5 -66.43,18.81 -23.01,4.43 -45.82,1.88 -66.09,-12.5 -62.14,-43.97 -120.22,-91.45 -162.22,-156.85 -53.62,-83.55 -98.51,-170.32 -126.58,-266.29 -18.48,-63.1 -40.37,-125.19 -57.97,-188.74 -23.91,-86.34 -27.9,-175.63 -44.8,-262.88 -6.25,-187.5 -29.64,-374.23 -19.72,-562.58 5.04,-95.18 0.06,-190.95 -1.37,-286.47 -1.17,-79.12 -0.7,-158.1 8.65,-236.86 1.51,-12.75 -0.28,-25.94 -1.33,-38.86 -0.97,-11.83 -22.48,-21.34 -30.98,-13.49 -7.1,6.57 -12.69,14.79 -18.91,22.31 -11.75,14.07 -22.56,17.22 -33.49,10.92 -73.94,-42.62 -128.79,-101.52 -158.08,-182.85 -12.2,-33.96 3.77,-66.79 40.05,-76.71 18.99,-5.2 38.74,-7.36 58.12,-10.97 24.03,-4.49 45.63,-1.55 63.35,17.72 6.55,7.14 15.2,12.56 23.48,17.92 21.6,13.94 44,8.68 59.87,-13.61 5.72,-8.04 12.44,-15.68 16.67,-24.47 41.34,-86.06 82.56,-171.56 96.88,-268.1 12.11,-81.36 27.85,-162.11 37.36,-244.06 14.41,-124.11 32.55,-247.92 52.35,-371.32 12.51,-77.89 25.94,-156.06 54.7,-230.32 4.73,-12.26 7.6,-25.25 11.53,-37.83 10.07,-32.42 10.7,-64.72 -0.25,-97.16 -6.3,-18.73 -12.47,-37.59 -17,-56.81 -9.73,-41.27 6.5,-68.83 48.67,-83.46 15.52,-5.36 31.55,-9.48 47.43,-13.85 25.41,-7.03 50.77,-14.16 76.32,-20.66 147.87,-37.67 285.38,-100.24 419.96,-170.83 46.24,-24.25 89.47,-55.99 141.15,-68.44z"/>
   <path class="fil5" d="M8387.37 1493.31c0,32.94 1.35,65.93 -0.3,98.76 -2.63,52.6 -5.64,105.24 -11.39,157.54 -6.12,55.75 -11.37,111.34 -12.31,167.45 -2.77,161.34 -4.91,322.67 -2.72,484.06 0.36,26.23 -1.83,52.69 -5.53,78.63 -1.18,8.4 -10.4,16.09 -16.95,23.15 -5.28,5.72 -23.01,3.98 -26.52,-2.22 -7.96,-14.1 -19.21,-27.73 -22.42,-43 -24.47,-115.71 -53.24,-230.48 -49.64,-350.74 2.77,-92.2 2.6,-184.24 14.74,-275.99 8.24,-61.95 11.23,-124.59 16.79,-186.89 9.68,-108.29 23.98,-215.93 43.11,-322.95 4.61,-25.81 3.82,-52.54 6.77,-78.68 2.66,-23.73 13.63,-44 31.23,-60.06 12.14,-11.1 25.19,-21.21 38.24,-31.22 120.3,-92.01 241.09,-183.33 360.81,-276.05 59.87,-46.38 118.49,-94.34 183.82,-133.16 5.64,-3.37 11.72,-6.58 16.25,-11.15 58.38,-58.52 126.16,-105.19 191.82,-154.72 12.49,-9.46 22.28,-24.25 29.61,-38.53 11.94,-23.37 22.07,-47.85 30.78,-72.61 16.67,-47.33 47.79,-86.15 72.78,-128.61 71.45,-68.63 143.14,-138.76 242.91,-163.21 105.39,-25.8 211.56,-50.9 322.01,-39.04 26.11,2.82 52.71,1.63 79.04,0.97 122.7,-3.07 244.19,10.18 362.1,42.2 136.73,37.13 269.67,86.28 393.34,157.19 8.4,4.81 15.51,12.03 22.56,18.77 1.96,1.86 3.37,7.03 2.23,8.85 -2.98,4.73 -7.46,11.69 -11.53,11.83 -12.99,0.5 -26.46,-0.14 -39.04,-3.15 -76.77,-18.5 -153.05,-38.93 -229.98,-56.47 -102.68,-23.37 -205.25,-47.23 -309.31,-64.05 -49.04,-7.91 -97.96,-12.42 -147.57,-11.45 -39.53,0.78 -79.04,0.36 -118.61,0 -36.51,-0.33 -72.02,5.67 -107.55,13.5 -57.09,12.61 -104.36,38.58 -136.58,89.21 -22.93,36.06 -47.93,70.82 -71.26,106.64 -42.34,64.99 -60.02,138.74 -72.71,213.72 -11.94,70.68 6.14,137.31 32.53,202.24 9.86,24.28 19.77,48.53 28.95,73.06 3.69,9.82 -8.46,28.91 -18.16,31.89 -32.25,9.86 -66.15,12.72 -97.4,2.82 -40.44,-12.77 -81.06,-27.35 -114.33,-56.47 -24.75,-21.69 -51.3,-41.34 -76.76,-62.19 -43.01,-35.24 -89.86,-37.51 -139.19,-16.26 -18.11,7.79 -36.14,16.2 -53.27,26 -80,45.82 -159.87,91.75 -239.35,138.41 -70.89,41.65 -140.73,84.85 -217.2,116.4 -39.44,16.25 -76.71,37.94 -114.24,58.58 -27.49,15.11 -44.64,39.23 -48.15,70.79 -3.68,32.62 -6.47,65.45 -7.27,98.28 -1.19,49.28 -0.3,98.65 -0.3,147.95 -1.64,0 -3.26,0 -4.9,0z"/>
   <path class="fil6 str0" d="M9101.1 12040.55c114.26,131.67 1684.24,1176.1 1704.67,1364.52"/>
  </g>
 </g>
</svg>
